<?xml version="1.0" encoding="UTF-8" standalone="no"?>
<!DOCTYPE svg PUBLIC "-//W3C//DTD SVG 1.1//EN" "http://www.w3.org/Graphics/SVG/1.1/DTD/svg11.dtd">
<svg width="100%" height="100%" viewBox="0 0 1482 1170" version="1.1" xmlns="http://www.w3.org/2000/svg" xmlns:xlink="http://www.w3.org/1999/xlink" xml:space="preserve" style="fill-rule:evenodd;clip-rule:evenodd;stroke-linejoin:round;stroke-miterlimit:1.41421;">
    <g transform="matrix(6.12323e-17,-1,1,6.12323e-17,27.5686,1163.54)">
        <path d="M1013,166C1007.92,165.581 1003.8,163.442 998.985,162.014C993.387,160.355 987.405,159.327 982,157.134C970.362,152.413 959.615,145.673 948,140.802C931.302,133.8 915,130 899,141C902.29,155 909.236,168.338 918.873,179C928,189.048 939.662,196.753 948.826,207C955.582,214.553 962,222 970,228.153C973.29,230.658 975.931,233.321 980,234C977.87,240.729 973.359,246.799 970,253C961.183,269.276 950.932,284.833 943,301.576C937.34,313.761 933.734,326.786 927.78,339C906.69,382 885.829,425.012 864.613,468C858.417,480.439 851.167,492.478 845,505.089C840.193,515.193 836.857,526 832.176,536C828.824,543.271 822.216,550 821,558L819,558C818.965,545.275 812,530 805.631,519.17C802,513.161 802.237,507.665 794,509C794.252,512.796 795.847,516.188 795.982,520.004C796.717,541 792.995,561 787.896,581C785.527,590.298 783,600.252 779,609C776.907,613.44 772.438,617 769,620.424C764,625.766 759.279,631.813 755.37,638C735.578,669.322 716.687,701.229 697.605,733C688.576,748.032 679.178,763.476 673.23,780C670.801,786.749 667.779,793.265 665.347,800C663.936,804 662.738,809.545 659.502,812.4C656.842,814.746 652.276,814.604 649,815.569C641.305,818 633.476,819.723 626,822.822C599.972,833.683 573.207,845.194 550,861.576C543,866.402 536.487,871.159 529.999,876.46C526.276,879.502 522.788,882.112 522,887C525,887.562 527.922,888 531,888L531,884C539.423,882.504 547.557,878.684 556,877.26C581.429,873 607.396,874 633,874C624.189,897 604.949,916.348 588.259,933.711C573.3,949.273 559.233,965.691 543.997,981C530.407,994.648 515.375,1007.08 502.17,1021.04C490.396,1033.48 479.738,1047.14 468.625,1060.15C463.36,1066.32 456.168,1075.59 448.714,1079.19C445,1081 441.511,1079.06 438,1078.15C430.409,1076.2 422.783,1075.21 415,1074.29C395,1072 374.209,1075.05 355,1080.12C348,1082 340.437,1084.33 334,1087.75C331.729,1089.03 328.378,1091.77 328.907,1095C329.249,1097 331.23,1097.6 333,1097.67C338,1098 342.664,1095.73 348,1096.42C355.291,1097.38 362.707,1097.25 370,1098.3C383.818,1100.29 397.501,1104.5 411,1108C406.945,1113.3 401.279,1117 396,1121C388.413,1126.64 380.927,1132.38 373,1137.67C342.243,1158.17 309.844,1175 277,1191.69C265,1197.79 249.517,1203.52 236,1204.01C232,1204.15 227.715,1205.61 224,1203.68C213.504,1198.15 207.445,1182.21 202.844,1172C195.232,1155.1 185.67,1139.12 173.572,1125C163,1112.67 149.409,1100.06 135,1092.32C115.517,1082 93.814,1076.76 74,1068C68.844,1071 61.782,1067.72 56,1068.79C53.824,1069.19 50.636,1070.05 50.636,1073C50.636,1076.33 59.254,1081.13 62,1082.43C67.857,1085.19 74,1085.7 79.985,1089.02C88,1093.64 94.321,1101 101,1107.3C111.43,1117 119.487,1129.39 127.508,1141C144.531,1165.63 158.976,1193.34 168,1222C160.357,1225.07 166.766,1233.21 166.981,1239C167.58,1255.08 162.759,1268.18 157,1283C151.504,1297.79 142.823,1311.25 135,1325C130,1334 126,1343.5 120,1352C108.269,1369.29 93.251,1386.24 77,1399.54C68.57,1406.43 59,1410.64 50,1416.27C47,1418.06 42.873,1420.53 41,1423.45C38.761,1427.06 40.95,1430.82 45,1431C48,1431 50.985,1429.55 54,1429.18C59,1428.58 64,1429.38 69,1428.08C84.427,1424.03 98.57,1413.37 111,1404C122.319,1395.25 134,1386.3 143.961,1376C148.617,1371.13 152,1365.56 156.333,1360.33C166,1348.02 175.535,1336.25 184,1323C191.192,1312.13 197.594,1301.18 203.38,1289.58C206.479,1283.36 210.503,1274.37 216.439,1270.42C224,1265.3 235.669,1268.64 244,1269.71C248,1270.23 251.979,1269.37 256,1269.67C265.652,1270.39 275.307,1272 285,1272L285,1276C296,1277.52 314,1285.77 313,1299C319.837,1301 324.843,1296.54 329.925,1292.35C337.552,1286.07 345.427,1279.44 354.424,1275.21C359.66,1272.75 366.378,1274.3 372,1274C382.255,1273.21 391.948,1271.5 402,1269.62C429.288,1264.52 456.812,1260 484,1254C506.467,1249.11 528.661,1242.8 551,1237.53C576,1231.61 603.451,1227.44 626.74,1216.16C631.819,1213.7 635.881,1208.36 641,1205.42C666.858,1190.58 690.717,1175.49 713.714,1156.42C742.746,1132.35 769.27,1104.39 793.887,1076C800.895,1068 806.992,1059 813.66,1050.58C817.646,1045.57 820.801,1040.79 827,1038.44C843.29,1032.27 855.49,1040.77 868,1050.74C888.617,1067.17 907,1086.52 923.69,1107C930.717,1115.64 940.404,1128.53 941,1140L944,1140C944,1132.59 946,1125.37 946.83,1118C948,1104.83 949.382,1091.22 949.961,1078C951.969,1032.12 949.177,986.495 942.572,941C939.443,919.449 932.849,896.377 925,876C923,870.585 919.838,865.639 916.407,861C914.618,858.581 911.925,856.217 911.846,853C911.67,845.77 917.216,838.088 918.536,831C919.58,825.397 919.31,819.561 920.376,814C921.348,809 923.448,804.071 924.485,799C925.811,792.523 925.425,785.573 926.289,779C927.963,766.273 930,754 928.83,741C926.927,721.017 923.61,701.521 919.514,682C917.205,671 915.615,659.78 912.248,649C905.931,628.777 892.43,611.15 892.275,589C892.211,580 895.202,568.801 897.51,560C900,550.483 905.43,542 909.421,533C918.797,512.037 929.721,492 939.911,471.424C960.445,430 977,386.46 999.757,346C1008.7,330 1015,312.828 1024.53,297C1026.65,293.413 1028.97,289.708 1030.86,286.001C1031.82,284.117 1032.2,281.229 1034.31,280.216C1036.18,279.318 1038.31,280.324 1040,281.14C1044.76,283.431 1049.96,285.675 1054.42,288.46C1066.75,296.156 1078.91,302.425 1090,312C1095.28,316.424 1100.4,320.762 1102.94,327.424C1104.74,332.132 1101.68,334.594 1101,339.039C1100.65,343.373 1101.77,349 1103,353L1105,353C1112.68,342.315 1115.8,331 1128.29,324.023C1134.51,320.62 1147.99,323.501 1151,316C1144,313.691 1137.77,310 1131,307.569C1123.77,305.02 1117.34,304.732 1111,299.62C1101.32,291.807 1094.83,278.275 1088,268.039C1084.76,263.184 1082.81,258.025 1080,253C1077.56,248.578 1074.4,246.307 1074,241C1070,240.007 1068,237.475 1065,235C1067.53,231 1063.7,229.009 1061,226C1065.58,225.019 1064.26,220 1065.31,216.083C1066.87,210.454 1070.32,204.587 1072.97,199.389C1081.58,182.499 1089,165 1098,148.083C1103.92,137.013 1112.78,124 1113,111C1118,109.205 1119.95,98 1122.77,93.054C1124.87,89.473 1128.66,87.59 1130.7,84C1133.49,79.033 1137,71.724 1137.58,66C1137.84,63 1136.63,60 1136,57C1135.22,51.349 1135,45.646 1134,40C1133.2,34.6 1132.7,29.326 1131.45,24.004C1130.92,21.745 1131,19 1128.68,17.742C1123.85,15.292 1119.89,19.249 1115.96,21.32C1111.81,23.506 1107.19,24.527 1103,26.609C1098.42,29 1094.3,32.046 1089.71,34.279C1086,36.021 1080.94,36.018 1078,39C1076,40.768 1075.77,43.682 1074.61,46.001C1072.57,50.096 1070,54.161 1067.65,58C1052.7,81.052 1039.99,106.797 1029,131.83C1025.81,139.122 1023,147 1019.44,154C1017.2,158.37 1013.92,161 1013,166ZM1125,26C1130.45,32.663 1129.38,45.745 1130.17,54C1130.54,58 1131.6,61.741 1130.2,65.576C1123.68,83.41 1114,100.45 1106,118C1096.91,138.535 1088.35,160.708 1076.63,180C1071.26,189 1068,198.758 1063.53,208C1061.31,212.505 1060,216.517 1055,218C1054.51,211.544 1049.44,210 1045,206C1047,201.346 1042.76,200.252 1042.79,196C1042.82,192.277 1046.26,186.434 1047.67,183C1060.7,151.268 1079.6,122 1094.45,91C1101.54,76.238 1109.46,61.76 1116.53,47C1119.76,40.219 1121,32.346 1125,26ZM1118,27C1112.7,45.571 1103,63 1094.18,80.001C1083.24,101.15 1073,122.606 1062.17,143.83C1056.74,154.45 1051.62,165.11 1046.76,176C1044.32,181.468 1040.95,186.299 1039,192C1034.97,191.372 1031.68,189.664 1028,188C1030.33,187.016 1032.46,187.019 1035,187C1033.67,182.604 1030.48,182.526 1027.58,179.436C1026.27,178.028 1025.78,176.072 1024.42,174.694C1022.48,172.728 1019,172.12 1018.66,169C1018.24,165.611 1021.59,162.065 1022.58,159C1026,148.361 1030.71,138.16 1035.4,128C1044.43,108.431 1056,90.555 1066.26,71.676C1069.56,65.548 1073.34,60 1076.86,54C1078.61,51.023 1079,47.167 1081.51,44.634C1086.8,39.12 1096.19,36.737 1103,33.792C1108.21,31.536 1112.36,28.238 1118,27ZM631,102C632.223,103.195 632.42,103.317 634,104C633,102.216 633,102.406 631,102ZM1136,316C1131,319.808 1124.17,319.032 1118.88,322.34C1114.38,325.155 1113.29,330.427 1108,332C1107.97,323.393 1104,319 1098.38,313C1086.96,300.644 1070.55,292.359 1056,284.462C1051.17,282 1041.94,279 1038.66,274.529C1035.55,270.295 1041.65,264 1045,262C1046.52,264.4 1047.56,266.19 1048,269L1051,269C1051,255 1043.34,246.661 1033,237.79C1019.4,226.123 1003.44,215 985,215C986.371,221.254 984.333,224 983,230C976.39,229 970.797,223.355 966,219C958.295,211.769 951.666,203.809 944.535,196.155C940.992,192.351 937,189.281 934,185C943.791,186.404 951.605,185.342 961,183L961,180C953.851,178.732 947.213,181.436 940,181C924.964,180 915,169.642 910.225,156C908.497,151.145 911.528,147 910,142C930.564,133.646 949.787,148.299 968,156.486C974.232,159.288 982,160.616 987.83,164.225C990.637,166 992.741,168.687 995.428,170.626C1007.62,179.422 1019.18,188.728 1029,200.12C1036.57,208.707 1042.69,218.567 1049.84,227.424C1058,237.639 1068,246.535 1076,257C1088.65,273.679 1096,296.047 1114,308.2C1117.65,310.667 1121.94,311.233 1126,312.769C1129.39,314.052 1132.38,315.529 1136,316ZM934,153C929.874,152.493 926.52,151.436 925,156C932.23,157.314 932.577,164.137 939,166L939,160C942.379,160.736 944.608,161.484 947,164L948.843,163.41C954.961,157.805 944,157 941.603,154.411C939.74,152.481 940,149.462 940,147C935.635,147.34 934.34,148.635 934,153ZM958,195C958.195,201 961.635,202.35 964.431,207.093C966.577,210.733 966.869,215.019 969.692,218.291C973.604,222.824 978.509,222.157 979,216L983,216C980.955,213.262 977.579,212.238 975,210C971.758,206.769 970.719,202.816 966,202C964.871,197.306 962.832,195.372 958,195ZM872,530C880.434,505 896.352,484.321 907.961,461C915.415,446 921,430.048 928.437,415C934.446,402.68 942.235,391.209 948.252,379C960.395,354.239 970.882,328.435 984.424,304.424C993.214,289 1001.92,273.095 1009.74,257C1012.21,252 1014.57,241 1019.28,237.662C1021.24,236.325 1023,237.02 1024.91,238.333C1029,241.439 1037.19,248.497 1039,253.424C1040,256.245 1037.98,258.587 1036.97,261.089C1034,268.211 1030.8,275.087 1027.41,282C1022,293 1015.72,303.412 1009.94,314.174C1001.31,330.254 993.712,347 985,363C980.92,370.77 978,379.098 974.356,387C958.246,420.364 944.577,455.094 927.328,488C918.372,505.085 910,522.493 901.434,539.83C897.353,548.057 891,557 889.262,566.089C886.183,582 886.228,597.611 891.366,613C894.381,622.032 903.407,633.493 902,643C907.206,645 907.865,651.102 908.751,656C910.492,665.626 913.276,675.32 915.286,685C920.707,711.118 926.397,738.045 923.83,765C922.677,777.114 921.894,790.061 919.37,802C917.586,810.376 913,818.16 914,827C909.77,831.159 912.537,835.734 911.291,841C908.403,853.206 902.965,865.228 898.836,877C897,882.079 896.766,888.044 891,890C892,899.442 886.867,907.486 883.25,916.039C880.356,923 878.789,930.22 875.872,937C872.305,945.29 867.446,953.039 863.258,961.015C833.448,1017.78 798.599,1071.71 751,1115.18C739.784,1125.44 729.579,1140.82 716,1148C714.554,1145.72 713.689,1145.42 711,1145C711.674,1147.3 711.965,1147.77 714,1149C710.927,1155.31 704,1158.49 699,1163.09C681.469,1179 660,1189.03 640,1201.2C630,1207.25 619.851,1213.42 609,1217.73C593.836,1223.76 577.817,1226.59 562,1230.34C547.972,1233.66 534,1237.32 520,1240.36C473.953,1250.3 428.737,1263.3 382,1269.79C376.442,1270.56 370.6,1270 365,1270.02C350,1270.38 335,1270.24 320,1271C293.665,1272.05 267.241,1266 241,1265C231.79,1264.65 224.174,1260.22 215,1264.72C209,1267.65 205.996,1274.46 202.961,1280C196.773,1291.29 192.488,1303.11 185.365,1314C161.865,1350 136.55,1383.24 100,1407C86.203,1415.78 73,1425 56,1425C61,1418.63 69.982,1414.77 77,1410.72C85,1406.05 92.898,1400.17 99.961,1394.08C108.858,1386.4 116.552,1376.82 124.285,1368C140.287,1349.76 155,1331.37 166.691,1310C168.673,1306.37 171.18,1302.79 172.732,1299C177.943,1286.1 181.916,1263.55 199,1262C197.315,1256.59 193,1258.31 189,1260.73C182.417,1264.61 178,1273.12 175.204,1280C171.726,1288.44 169.494,1298 165.261,1306C152,1331 134,1353.42 115,1374C104,1386 93,1399 78,1406C81.397,1400.13 88.238,1397 92.83,1392C103.678,1380.3 114.479,1368.03 123.37,1354.75C135.322,1337 145.734,1317.21 155.269,1298C162.727,1283 171.192,1267 172.83,1250C175.254,1225 167,1205.01 156.594,1183C146.351,1161.67 134.733,1142.58 119.997,1124C109,1110.19 97.646,1097.14 83,1087.05C76.718,1082.72 69,1081.34 63,1077C66.709,1075.71 70.505,1077.64 74,1079.17C81.517,1082.44 87.815,1086.83 95,1090.64C129.632,1109 160,1138.23 174.215,1175C178.896,1187.15 182.976,1203.48 191.21,1213.71C193.783,1217 198.645,1222.33 202.922,1223C205,1223.27 206,1221.42 204.704,1219.74C201.459,1215.62 196.505,1213.73 193.44,1209C183.757,1194.07 179.707,1175.04 171.985,1159C165,1144.5 153.803,1132.48 142.285,1121.59C123,1103.45 102.986,1090.6 80,1078C90.539,1075.03 106.619,1084.06 116,1088.49C148.952,1104.02 176.372,1129 192.691,1162C198.905,1174.61 203.876,1187.33 211.834,1199C215,1203.69 219.892,1209.83 226,1210.49C239,1212 253,1204.72 265,1200.78C284.831,1194.2 303.828,1183.82 322,1173.52C339,1163.8 356.355,1154.55 372.996,1144C384,1137 394.511,1128.44 405,1120.53C409,1117.46 413.676,1112.15 419,1111.58C424,1111.04 429.295,1114.65 434,1116C432.655,1107.54 419,1105.64 412,1103.51C398.558,1099.48 383.921,1096 370,1094.16C360.378,1093 350.529,1092.77 341,1091C346,1086.41 353.517,1084.57 360,1082.71C378.297,1077.46 402,1075.26 421,1078.8C428.928,1080.3 441.482,1080.63 445,1089C447.593,1088.49 449.407,1088.49 452,1089C454.851,1078.44 464.945,1072 471.955,1063.83C487.803,1045.46 502.758,1026.8 521,1010.72C543.309,991.039 563.355,968 583.428,946.116C603.831,924 625,902.151 639,875C646.733,876 654.203,878.384 662,879C660.448,874.085 656.598,874.159 652,873.411C645.517,872.356 639.555,871.36 633,871C614.435,869.638 595.556,869.404 577,871.17C567,872.119 556.967,874.571 547,875C551.218,868.437 562,866.1 569,863.274C583,857.574 597.49,853.149 612,849.287C621.241,846.828 630.322,843.119 640,843.004C649.576,843 659.51,843.175 669,844.424C671.444,844.746 678.216,846.538 680,844.282C682.367,841.51 675.355,840.215 674,840.094C664.651,839.261 655.395,839 646,839C623.897,839.001 600.669,846.83 580,854.218C572.557,857 565.627,861 558,863C564.601,855.415 577,851 586,846.396C596,841.22 606.392,834.701 617,830.662C629.776,825.797 643,822.322 656,818C663.564,815.268 674.349,815.098 681.911,817.615C683.455,818.129 688.743,821 689.373,817.793C689.808,815.63 686.49,814.3 684.995,813.679C679.638,811.456 673.668,812 668,812C668,803.688 671.831,797.567 674.584,790C681.197,771.822 689.431,755.781 699,739C703.245,731.685 709.874,724.199 712,716L714,716C714,767.455 751.618,808.793 794,833.001C810.677,842.526 829.508,852.817 849,855C853.32,855.317 857.704,854.089 862,854L862,851C847.723,851 836.391,847.433 823,843C784.455,830.037 748.988,802 730.795,765C724,751.475 719.393,737.345 720,722C720.17,718.309 721.972,715.514 722.701,712C723.83,706.562 723.584,701.416 725.445,696C728.832,686.144 736.649,675.524 742.627,667C749.998,656.488 755.881,638.699 768,633C768,640 768,647.349 770,654C775.388,671 790.612,686.766 803.259,699C808.539,704 817.553,705.407 821,712L823,712L824,711C820.229,703.397 812.793,701.662 806.714,696.32C800.527,691 795.587,684.345 790.386,678C784.83,671.221 778.235,663.553 775.559,655C773.589,648.708 771.875,638.453 773.613,632.015C776.238,622.291 783.775,614 786.508,604C794,576.605 800,550.604 800,522C804.364,524.523 805,529.633 807,534C811.882,544.067 815.96,554.509 813.725,566C813,569 811.319,571.225 810.394,574C809.658,576.206 810,578.493 809.492,580.714C808.957,583 807.312,584.708 807.198,587C807,588.236 807.645,589.793 809.192,589.793C811.22,589.793 812.429,587.547 813,586C815.168,581.587 816.823,576.633 818.349,572.039C821.462,562.665 827.326,555.381 831.94,546.83C836.41,538.547 839.39,529.452 843.353,521C856,493.496 870.583,467.127 883.975,440C894.898,418 904.509,395.226 915,373C924,354.389 934.499,336.631 943.31,318C946,312.23 947.448,306 949.862,300.039C952.832,292.777 957.576,286.51 961.371,279.714C969,266 976.408,251.781 984.326,238C987.68,232.164 990.479,218.282 999,221.438C1003,223 1012.73,226.776 1014.31,231.224C1016,236.055 1011.84,242 1009.94,246C1004.55,257.623 999.364,270.048 992.627,281C984.524,294.172 978.877,308.295 971.819,322C953.318,358 935,394.036 916.806,430.039C911.78,440 908,450.572 903,460.424C898,470.328 891.71,479.244 886.344,489C882.318,496.321 879.788,504.313 875,511.271C871.918,516.096 864.92,526.699 872,530ZM894,674L894,695C899,691.073 899,679.053 898.996,673C898.927,667 897.868,661 897,655C896.819,652.19 896.881,649 895.487,646.299C894.272,644.076 891.524,643 889.575,641.335C881.283,635 871.468,630.438 861.425,635.8C843.872,645.172 845.209,666 858.579,678C861,680.099 863.71,682.514 867,683.487C877.261,686.522 886.368,679.472 894,674ZM869,640.549C881.182,637.199 893,653 891.806,664C890.915,671.33 883.669,676.522 877,678.239C863.206,681.791 850.947,666.216 854.576,653C856.271,646.827 863,642.181 869,640.549ZM869.514,649C857.817,654.385 867.968,672.742 878.699,667.012C889.5,661.244 879.56,644.085 869.514,649ZM836,770C838.23,770.165 839,770.091 841,769C838.628,768.67 837.986,768.699 836,770ZM211,1247C216.765,1248.07 223.167,1249.81 229,1250C236.287,1250.12 243.631,1249 251,1249.02C257.627,1249.18 264.385,1251.06 271,1249.47C278.98,1247.54 284.952,1240.41 293,1238.41C301,1236.38 310,1238.7 318,1236.57C324.912,1234.71 329.742,1228.36 337,1226.68C342.618,1225.38 348.676,1228 354,1225.77C360,1223.31 363.973,1217.17 370,1214.73C377.992,1211.49 387,1214.73 395,1211.36C403.591,1207.7 409.171,1199.2 418,1195.61C428.637,1191.28 438.631,1198.77 448.999,1194.1C460,1189.08 464.599,1175.75 475,1169.7C480.602,1166.45 487.221,1169.48 493,1167.14C501.68,1163.63 506,1153.73 514,1149.28C522,1144.76 531.963,1147.46 540,1142.78C552.407,1135.55 557,1120 569,1112.48C577.612,1107.12 589.732,1109.18 599,1104.79C609.852,1099.64 612,1086.61 621,1079.28C628.898,1072.79 640.556,1073.76 647.786,1066C653.791,1059.39 649.454,1050.63 654.653,1044.21C660.449,1037.06 674,1037.28 678.196,1029C681.727,1021.68 677.904,1013 682.56,1006.01C686.479,1000.25 692.897,996.486 699,993.475C703.398,991.305 709.355,989.126 711.951,984.671C715.436,978.689 717.554,970 716.826,963C716.315,958.172 712.97,952.72 715.333,948.015C719.722,939.273 732.529,939.453 737.181,930.572C742.62,920.19 735.581,904.648 742.703,895.289C748.857,887.203 761.824,886.126 765.576,876C769.869,864.41 758.566,853.185 762.893,842.004C764.272,838.443 767.245,836 771,835.228C775.575,834.393 780.232,836.326 782,831C778.954,830.275 776,830 773,830.29C770.653,830.588 768.219,831.079 766,832C748.58,839 764.762,861.365 761.427,873C758.382,883.627 743.274,884.664 737.938,894.001C732.46,903.587 738.482,917.186 733.682,927C728.85,937 713,936.229 710.42,947.004C709,952.586 711.865,957.649 712.741,963C713.476,967.493 712.503,972 710.768,976C704.599,990.707 686.865,990 678.603,1003C674.266,1010 678.791,1020.07 674,1027C668.803,1034.62 656.475,1034 650.434,1041.19C645.797,1046.73 649.526,1055 644.867,1060.7C637.748,1069.64 625.437,1069 617,1075.42C609.272,1081.42 607.678,1092.38 599.957,1098.21C589.245,1106.3 574.676,1102.41 564.174,1110.02C553.681,1117.61 549,1131.11 538,1138.19C530.362,1143.08 522,1140.75 514,1143.76C504.579,1147.26 499.84,1157.03 491,1161.74C484.684,1165.1 477,1162.44 471,1166C460.56,1172 456.567,1185.77 445,1190.54C439.681,1192.74 433.403,1190 428,1189.29C423.268,1188.7 418.409,1190 414,1191.66C404.499,1195.36 398.917,1205.5 389,1208.36C382.539,1210.23 375.493,1208 369,1209.56C361.824,1211.44 357.889,1218.61 350.999,1221C344.548,1223.2 337.504,1221.02 331,1223.25C324.232,1225.57 319.239,1231.54 312,1232.69C305.545,1233.73 298.64,1232 292.285,1233.46C282.805,1235.82 275.718,1244.72 266,1246C258,1246.82 251.597,1243.64 244,1243.24C238.576,1243 233.659,1245.38 228,1244.71C222.781,1244.1 214.276,1242 211,1247ZM631,858C632.58,857.317 632.777,857.195 634,856C631.908,856.406 631.98,856.217 631,858ZM945,1079L943,1079C942.987,1058.66 939.996,1038 936.464,1018C934,1004.7 932.307,991.22 929.482,978C925.925,961.354 919.684,944.016 914,928C911.596,921 908.884,913.524 905.268,907C903,903.025 898.903,898.456 898.354,893.83C897.664,888.019 901.61,882.274 903.385,877C904.531,873.597 905.207,868.214 907.843,865.608C912.752,860.756 917.695,870.605 919.276,874C925.325,886.797 928.733,900.288 932.241,914C937,933.189 938.878,952.405 941.286,972C944,994.666 946.724,1017.11 946.996,1040C947,1053.1 945,1066 945,1079ZM942,1105C940,1100.6 940.308,1095.72 939.714,1091C938.966,1085.07 937.326,1078.68 935.48,1073C929,1053.4 923.287,1033.68 916.583,1014.17C912.529,1002.37 907.36,991 903.269,979C900,970 896.897,960.401 891.982,952C888.812,946.581 882.62,940.541 882.283,934C882,930.809 883.695,928 884.573,925C887,916.411 891.226,908.525 894,900C899.694,901.752 902.784,908.66 904.711,914C908.64,925 911.491,936.189 915.458,947C927.264,979.172 931.898,1012.19 936.289,1046C938.819,1065.47 942,1085.32 942,1105ZM936,1097C932.916,1093 931.59,1087.68 929.572,1083C926.638,1076.2 923,1069.64 919.742,1063C908.683,1040.58 895.914,1018.57 879,1000C872.672,993 866.867,984.11 858,980C861.187,966.107 872.773,954.262 878,941C884,943 887,948.555 889.498,954C893,962 896.403,969.745 899.275,978C909.867,1008.44 923.372,1038.43 930.289,1070C932.361,1079.45 935.993,1087.08 936,1097ZM938,1120C932,1114.11 927.897,1105.63 922.6,1099C907.362,1080 889.272,1061.6 870,1046.58C863.195,1041.27 855.467,1034.07 847,1031.64C840,1029.66 832.845,1032.12 826,1033C834.721,1016.03 847.685,1000.63 855,983C866.577,987 874.9,999.109 882.672,1008C901,1028.73 911.947,1055.45 923.981,1080C929.699,1091.66 937.69,1106.77 938,1120ZM705,1136C706.382,1138.42 707.363,1139.06 710,1140C708.532,1137.69 707.567,1137 705,1136ZM861,1145L861,1147L863,1147L863,1145L861,1145ZM346,1273C338.983,1280 328.236,1288.5 319,1292C313.625,1285 306,1278 298,1274C303.814,1271.56 310.916,1273.49 317,1274C326.699,1274.58 336.368,1273.76 346,1273ZM751.333,1279.67C751.278,1279.72 751.222,1280.78 751.667,1280.33C751.722,1280.28 751.778,1279.22 751.333,1279.67ZM1098,1279L1098,1281L1101,1281L1101,1279L1098,1279ZM1094,1287L1095,1290C1095.68,1288.75 1095.75,1288.45 1096,1287L1094,1287ZM938,1337C939.226,1339.04 939.703,1339.33 942,1340C941.422,1337.3 940.738,1337.21 938,1337ZM645,1350C646.696,1352.77 649,1353.8 652,1355C651.265,1350.77 649,1350.22 645,1350ZM955.667,1389.33C955.222,1389.78 956.278,1389.72 956.333,1389.67C956.778,1389.22 955.722,1389.28 955.667,1389.33Z" style="fill-rule:nonzero;"/>
    </g>
</svg>
