<?xml version="1.0" encoding="UTF-8" standalone="no"?>
<!DOCTYPE svg PUBLIC "-//W3C//DTD SVG 1.1//EN" "http://www.w3.org/Graphics/SVG/1.1/DTD/svg11.dtd">
<svg width="100%" height="100%" viewBox="0 0 395 328" version="1.1" xmlns="http://www.w3.org/2000/svg" xmlns:xlink="http://www.w3.org/1999/xlink" xml:space="preserve" style="fill-rule:evenodd;clip-rule:evenodd;stroke-linejoin:round;stroke-miterlimit:1.41421;">
    <g>
        <path d="M6,0L6,6L0,6L0.778,6.722L1.306,6.75L2,7L6,7L6,326L67,326L69,325.611L70,325.389L72,325.083L74,325L247,325L249,324.611L250,324.389L252,324.083L254,324L387,324L387,328L387.75,327.222L387.861,326.722L388.639,325.278L388.861,324.778L390,324L390,322L388,322L388,263L388,243L388,236L388,234L388,233L388,231L388.361,229L388.528,228L388.556,227L388.528,226L388.361,225L388,223L388,221L388,220L388,218L388,213L388,197L388,150L388,8L395,8L395,6L388,6L388,0L387.278,0.778L387.25,1.306L387,2.111L387,6L8,6L7,5L6.972,3L6.944,2.056L6.75,1.306L6.722,0.778L6,0ZM387,7L387,13L384.944,14.444L383.944,15.194L382,16.556L380,17.722L379,18.167L378,18.639L377,19.056L375,20.083L373,21.333L371,22.583L370,23.111L368,24L367,24.389L365,25.25L364,25.778L363,26.222L362,26.778L361,27.25L360,27.833L359,28.361L358,29L356,30L355,30.361L353,31.25L352,31.75L350,32.611L348,33.389L347,33.833L346,34.25L345,34.778L344,35.25L342,36.389L340,37.611L338,38.75L337,39.222L336,39.75L335,40.167L334,40.611L332,41.389L331,41.833L330,42.25L328,43.222L327,43.778L326,44.222L324,45.222L323,45.778L322,46.222L321,46.778L320,47.222L319,47.778L317,48.778L316,49.222L314,50.25L313,50.833L312,51.389L310,52.611L309,53.167L308,53.75L307,54.222L306,54.778L305,55.222L303,56.25L302,56.833L301,57.389L299,58.611L297,59.722L295,60.528L294,60.75L292.5,61L291,61L291,63L289.5,63.083L287.944,63.472L286,64.278L284,65.389L282,66.583L280,67.583L278,68.417L277,69L275,70L274,70.611L273,71.167L272,71.75L271,72.222L270,72.778L268,73.778L267,74.25L265.333,75.417L264.361,76.583L264,78L260,78L260,71L260,68L260,67L260,65L260,63L260.721,61L261.333,60L263,58L265,56L265.972,55L267.75,53L268.5,52L269.472,50L269.667,48L269.472,47L268.5,45.028L266.917,43.333L265.972,42.75L264,42.361L263,42.5L261,43.25L260,43.75L258,44.528L257,44.722L256,44.833L255,44.722L254,44.528L252,43.75L250,43L249,42.583L247,42.722L245,43.722L244,44.417L242.417,46.083L241,48L240.333,50L240.194,51L240.5,53L241.5,55L242.972,57L243.722,58L244.361,59L245.278,61L245.778,63L245.917,64L245.972,65L246,66L246,75L245,76L243.5,76.028L241.944,76.25L241,76.472L239,77.194L238,77.611L236,78.306L235,78.583L234,78.806L232,79.194L231,79.389L229,80L228,80.139L227,80.361L226,80.639L225,81L223,81.444L222,82L220,82.778L219,83.25L217,84.472L215.333,86.083L214.306,88L213.778,90L213.528,91L213.167,92L212.472,94L212,96L212,103L210.5,103.278L209.944,103.472L208,104.194L207,104.611L205,105.417L203,106.417L202,107.028L200,108.389L199,109.139L197,110.611L196,111.306L194,112.667L193.222,113.306L191.667,114.361L190.417,115L189,115L189,110L189,108L189,107L189,106L189.389,104L189.611,103L189.917,101L189.972,100L190,98L190.222,97L190.417,96L191,94L191.528,93L192.361,91L192.583,90L192.556,89L191.667,87.028L190.889,86.083L189,84.472L187,83.194L186,82.639L184,81.611L182,81L181,80.611L180,80.306L178,79.694L177,79.389L176,79.139L174,78.611L173,78.306L171,77.694L170,77.417L169,77.222L168.5,77.083L167,77L167,70L167,68L167,67L167,65L167,64L167.333,62L167.722,61L169,59L170.694,57L171.889,55L172.583,53L172.75,52L172.639,50L171.667,48.111L169.972,46.722L168,46.111L166,46.083L164,46.389L163,46.611L161,47L160,47L158,46.611L157,46.361L155,46L153,45.722L151,46.417L150,47.139L148.306,49L147,51L146.667,53L146.722,54L147.528,56L149,57.778L150.889,59.389L152.278,61.083L152.667,62.028L152.972,64L153,65L153,75L151.5,75.083L150.944,75.222L149.944,75.389L148,76L147,76.139L146,76.361L145,76.611L143,77L142,77.222L141,77.472L139,78.25L138,78.778L137,79.25L135,80.472L133.5,82.083L132.944,83.028L132.25,85L132,87L131.778,89L131.611,90L131.389,91L131,93L131,123L130.972,125L130.917,126L130.61,128L130.389,129L130,131L130,139L129.917,141L129.5,143L129,143.75L128.5,144.528L126.917,145.806L125.972,146.389L124,147.667L123,148.333L121,149.667L119,151L118,151.694L117,152.417L115,154L114,154.806L113,155.611L112,156.361L111,157.139L110,158L109,158.639L107,160.222L106,161.083L104,163L103,163.778L101,165.389L99,167.083L98,168.028L97,169L95,171L93,173L92,174L91,175L90,176L89.222,177L88.417,177.778L87,179.389L85.583,181.083L83.944,183L83,184L81.417,186L80.694,187L79.389,189L78.806,190L78.194,191L77,193L76,195L75.5,196L74.5,198L73.972,199L72.694,200.611L70.972,202.111L69,203.417L67,204.583L65,206L64,206.639L62,208.222L61.417,209.083L60.944,210.028L60.722,211L60.722,212L61,214L59.778,214.778L59.417,215.306L58.306,217.028L57.806,219L58.417,221L59.972,222.278L60.944,222.667L63,223L62.5,224.5L62.194,225.056L61.472,227L61.194,229L61.722,231L63,232.667L64.944,233.667L65.944,234L68,234L67.75,235.5L67.611,236L67.25,237.5L67,239L68.5,239.361L69,239.694L70,240.222L72,241.306L74,242L75.944,241.778L76.944,241.583L79,241L79,248L79.306,250L80,252L80.611,253L81,254L81.472,254.5L82,256L85,256L87,255.583L89,255L90,254.667L92,254L94,253.444L96,253.389L98,254.028L100,255L101,255.278L103,256L104,256.222L105,256.583L107,257.5L110,259L111,259.417L113,260.111L114,260.389L116,261.083L117,261.528L119,262.472L120,263L122,263.667L124,264.306L125,264.583L125.944,264.778L127.5,265L129,265L129,266.5L129.25,268.056L129.5,269L129.944,270L131.25,271.75L132,272.5L134,273.5L136,274L138,274L140,273.528L141,273.139L142,272.75L143.944,272L145.5,271.278L147,271L147.25,273.056L147.5,274.056L148.5,276L149.25,277L151,278.25L153,278.639L154,278.5L155.972,277.722L157.778,276.639L158.556,276.083L159.333,275.639L159.75,275.333L161,275L161,276.5L161.722,278.028L163,279.667L165,280.583L167,280.472L169,279.611L170.944,278.639L171.5,278.333L173,278L174.472,280.028L175.278,281L177,282L179,281.806L180,281.333L182,280.194L183.944,279.056L184.5,278.694L186,278L186,279L187,281L192,281L194,280.528L195,280.139L196,279.75L198,278.75L199,278.167L201,277.083L202,276.639L204,276.111L205,276.028L206,276L217,276L219,275.611L220,275.389L222,275.083L224,275L243,275L245,274.611L246,274.389L248,274.083L249,274.028L251,274L265,274L267,273.611L268,273.389L270,273.083L272,273L273,272.778L275,272.389L277,272.083L279,272L281,271.611L283,271.139L284,270.833L285,270.556L286,270.167L288,269.444L290,269L291,268.639L293,268.139L294,268L296,267.361L297,267.139L298,267L299,266.611L301,266L303,265L304,264.361L306,263.278L308,262.472L309,262.222L311,261.806L313,261.389L315,261L316,260.722L318,260L320,259.278L322,258.778L323,258.528L325,257.806L326,257.389L328,256.667L329,256.333L332,255.333L341,252.333L343,251.667L344,251.333L346,250.611L347,250.194L349,249.389L351,248.611L353,247.75L354,247.25L356,246.444L357,246.139L359,245.389L361,244.361L362,243.833L363,243.278L365,242.361L366,242L368,241L370,240L371,239.472L373,238.361L374,237.833L375,237.25L377,236.25L378.972,235.361L379.917,235L381.611,234L382.389,233.306L384,232.111L385.5,231.333L387,231L387,322L383.944,322L382,322L380,322.028L379,322.083L377,322.389L375,322.778L374,323L372,323L371,323L368,323L361,323L339,323L273,323L256,323L250,323L248,323L247,323L245,323.083L243,323.389L242,323.611L240,324L238,324L237,324L234,324L225,324L200,324L105,324L74,324L63,324L60,324L58,324L56,324.083L54,324.389L53,324.611L51,325L50,325L48,325L45,325L36,325L8,325L8,323L8.167,321L8.222,320L8.167,319L8,317L8,315L8,313L8,308L8,294L8,271L8,264L8,261L8,260L7.917,258L7.611,256L7.389,255L7,253L7,252L7,250L7,246L7,236L7,7L387,7ZM387,17L387,26L385.5,26.75L384.944,27.194L383.944,27.806L382,29L380,29.833L379,30.278L377,31.361L376,32L374,33L373,33.361L371,34.278L370,34.833L369,35.389L367,36.611L365,37.75L364,38.25L362,39.389L360,40.611L359,41.167L358,41.75L357,42.222L356,42.778L355,43.222L353,44.25L352,44.833L351,45.389L349,46.611L347,47.75L346,48.222L345,48.778L344,49.222L343,49.778L341,50.778L340,51.222L339,51.778L338,52.222L337,52.778L336,53.222L335,53.778L333,54.75L332,55.167L330,56.056L328,57.056L327,57.639L326,58.167L325,58.75L324,59.222L323,59.75L321,60.639L320,61.056L318,62.056L316,63.167L315,63.75L314,64.222L312,65.25L311,65.833L310,66.389L308,67.611L306,68.75L305,69.222L304,69.779L303,70.222L302,70.779L301,71.222L300,71.779L299,72.222L297,73.25L296,73.833L295,74.389L293,75.694L291,77.139L290,77.833L289,78.556L287,79.75L286,80.25L285,80.833L284,81.361L283,82L282,82.361L280,82.806L278,82.611L277,82.361L275,82L274,81.611L273,81.306L271,80.611L270,80.194L268,79.472L267.5,79.278L266,79L266.361,77.75L266.722,77.361L267.333,76.639L268,76L270,74.667L272,73.389L273,72.833L274,72.25L275,71.779L277,70.779L278,70.222L279,69.779L280,69.222L282,68.25L283,67.833L285,67L286,66.472L288,65.528L289,65.056L291,64.167L292,63.75L293,63.222L294,62.778L295,62.222L297,61.25L299,60.361L300,60L302,59L303,58.361L304,57.833L305,57.25L306,56.778L308,55.75L309,55.167L310,54.611L312,53.389L313,52.833L314,52.25L315,51.778L317,50.75L319,49.611L321,48.389L323,47.25L325,46.222L326,45.778L327,45.222L328,44.778L329,44.222L330,43.778L331,43.222L333,42.222L334,41.778L335,41.222L336,40.778L338,39.778L339,39.222L340,38.778L341,38.222L342,37.778L343,37.222L345,36.25L346,35.833L347,35.389L349,34.611L351,33.75L352,33.222L353,32.778L354,32.222L356,31.222L357,30.778L359,29.75L360,29.167L361,28.639L362,28.056L363,27.528L364,27L366,26.028L367,25.583L369,25L370,24.556L372,23.806L373,23.361L374,23L375,22.472L377,21.611L377.944,21.306L379.5,21.028L381,21L381.361,19.528L382.333,18.278L383.972,17.333L385.5,17.028L387,17ZM387,28L387,81L385.5,81.778L384.944,82.306L383.944,83.083L383,84L381,85.583L379,87L377,88.389L376,89.139L375,90L373,91.389L371,93L369,94.583L368,95.306L367,96L365,97.333L363,98.667L362,99.333L360,100.611L359,101.167L358,101.75L356,102.778L355,103.25L353,104.389L351,105.611L349,106.75L348,107.25L346,108.389L344,109.611L342,110.75L340,111.778L339,112.222L338,112.778L337,113.25L335,114.444L333,115.833L332,116.556L330,117.75L329,118.25L327,119.444L326,120.167L324,121.556L322,122.75L321,123.25L319,124.444L318,125.167L316,126.528L314,127.611L313,128.083L311,129.222L309,130.611L308,131.306L307,132L306,132.667L304,134L302,135.333L300,136.611L298,137.806L297,138.389L296,139.028L295,139.667L294,140.333L292,141.667L291,142.333L289,143.611L287,144.806L286,145.389L285,146.028L284,146.667L283,147.333L280,149.333L278,150.667L276,152L274,153.417L272,155L271,155.722L270.5,156.222L269,157L269,155.5L269.417,154L269.694,153L270.389,151L270.806,150L271.556,148L272,146L272.361,145L272.611,144L273,142L273.417,140L274,138L274.306,137L274.611,136L275,134L275.389,133L275.694,132L276.333,130L276.667,129L277.333,127L277.667,126L278.306,124L278.611,123L279,121L279.361,120L279.639,119L279.861,118L280.389,116L280.694,115L281.306,113L281.611,112L281.861,111L282.444,109L282.833,108L283.556,106L283.833,105L284.444,103L284.833,102L285.556,100L286,98L286.361,97L286.639,96L286.861,95L287.389,93L287.972,91L288.25,89L288,88L287.611,87L286.278,85.056L285.778,84.5L285,83L286.5,82L287,81.611L288,81L289,80.333L291,79L293,77.611L294,77L296,75.583L297,75.028L299,74L301,72.694L302,72.083L304,71.056L305,70.639L306,70.167L307,69.75L308,69.222L309,68.75L310,68.167L311,67.611L313,66.389L315,65.25L316,64.778L317,64.222L318,63.778L319,63.222L320,62.778L321,62.222L323,61.222L324,60.778L325,60.222L326,59.778L327,59.222L328,58.778L330,57.778L331,57.222L332,56.778L333,56.25L334,55.833L335,55.361L336,55L338,54L339,53.361L341,52.25L342,51.778L343,51.222L344,50.778L345,50.222L346,49.778L348,48.75L349,48.167L350,47.611L352,46.389L353,45.833L354,45.25L356,44.222L357,43.778L358,43.222L359,42.75L360,42.167L361,41.611L363,40.389L364,39.833L365,39.25L366,38.778L368,37.778L369,37.222L370,36.778L371,36.222L373,35.222L374,34.778L375,34.222L376,33.778L377,33.222L379,32.222L380,31.778L381,31.222L382,30.75L383.944,29.639L385.5,28.694L387,28ZM266,45L266,48.056L265.972,49L265.889,50L265.667,51L264.667,53L262.972,54.611L262,55.389L260,57.083L258.721,59L258.333,60L258,61L258,65L257.971,66L257.917,67L257.611,69L257.389,70L257,72L257,74L257.389,76L257.611,77L257.917,79L257.971,80L258,81L258,88L256.5,88.806L255.944,89L254.944,89.333L253,89.694L251,89.583L250,89.389L249.5,89.25L248,89L248,78L248.722,78.778L248.75,79.25L248.944,80.056L249,82L252,82L252,66L250,67L249,67L248.972,65L248.917,64L248.583,62L248.278,61L247.389,59.083L246,57.389L245.389,56.611L244,55L243.639,54L243,52L243.25,50L243.5,49L244.5,47.111L245.25,46.333L247,45.361L249,45.361L250,45.694L252,46.778L253,47.306L255,48L256,48L258,47.361L259,47L260,46.389L262,45.5L262.944,45.25L264.5,45.028L266,45ZM170,49L170,51.056L169.972,52.056L169.889,53L169.306,55L168,57L166.667,58.667L165.833,59.278L165.417,59.639L164,60L164,79L163.972,80L163.889,81L163.667,82L162.667,83.667L161.889,84.278L160.972,84.667L159,85L157,85L154,85L154,82L154,81L154,79L154,78L154.389,76L154.611,75L154.917,73L154.972,72L155,71L155,69L155,67L155,65L155.222,64L155.5,62L155.194,60L153.889,58.111L152.972,57.306L152,56.667L151,56.083L150.5,55.833L149,55L149,53L149.444,51.056L150,49.5L151,48L152.5,48L154,48.083L156,48.472L157,48.833L158,49.167L160,49.667L162,49.583L163,49.389L165,49.083L166,49.028L167.944,49L170,49ZM157,64L156.278,65.5L156.25,66.056L156,67.056L156,82L158,82L158,71L158,69L158,68L157.972,67.029L157.944,66.111L157.75,65.306L157.722,64.778L157,64ZM135,88L136.5,88.694L137,89.056L139,90.167L140,90.722L142,91.611L143,92L145,92.583L147,93L154,93L156,93.028L157,93.083L159,93.389L160,93.611L162,94L166,94L168,93.611L169,93.389L171,93.056L172,93L174,92.611L175,92.389L177,92.056L178,92L180,91.611L181,91.389L183,91.056L184,91L186,90.611L186.944,90.389L187.944,90.222L188.5,90.083L190,90L189.75,91.5L189.583,92.056L189.306,93.056L189,94L188.417,96L188.222,97L188,98L187.972,100L187.917,101L187.611,103L187.389,104L187,106L186.917,108L186.611,110L186.361,111L186,112L185.861,113L185.639,114L185.222,116L185,118L184.972,120L184.917,121L184.611,123L184.389,124L184,126L184,127L183.694,129L183.389,130L182.528,132L182,133L181.389,135L181,136L180.639,138L180.361,139L180,140L179.861,141L179.361,143L179,144L178.861,145L178.389,147L178,149L177.917,151L177.611,153L177.389,154L177,156L177,162L177.472,164L177.833,165L178.556,167L179,169L179.361,170L179.611,171L179.917,173L180,175L180,187L179.972,188L179.917,189L179.583,191L179,193L178.667,194L177.917,196L176.917,198L176.278,199L174.778,200.583L173.917,201.306L172,202.583L170,203.528L169,203.833L167,204.389L166,204.694L164,205.389L163,205.806L161,206.556L159,207.139L158,207.361L157,207.611L156,207.806L154,208.278L153,208.639L151,209.639L149,210.75L148,211.25L146,212.389L145,213.028L144,213.667L143,214.333L141,215.667L139,217L138,217.694L137,218.417L135,220.056L134,221L132,222.611L131,223.389L129,225.083L127,227L126,227.778L124,229.389L123,230.194L121,231.806L120,232.611L119,233.389L118,234.194L116,235.806L115,236.611L113,238.139L112,239L110,240.361L109,241.111L107,242.417L106,243L104.389,244.083L103.611,244.694L101.917,246L100.972,246.667L100,247.333L98,248.611L97,249.194L95,250.389L93,251.583L92,252.083L91,252.5L89,253L87,253L86,253L83,253L82,252L81.917,250.5L81.778,250L81.611,249L81.389,248L81,246.056L81,245.056L81,243L82.5,243.667L83,244L84,244.389L86,244.806L88,244.528L89,244.139L91,243.139L92,242.528L94,241L95.889,239.056L96.694,238.056L97.222,237.5L98,236L96.5,236.778L95.944,237.278L94.944,238.028L94,238.806L93,239.583L92,240.278L90,241.361L88,242L87,242L86,242L84,242L84,240.5L84.722,239L86,237L88,235.111L89,234.306L90.889,233.056L91.694,232.444L92.222,232.167L93,231L89,231L89.778,230L90.306,229.528L91,228.75L93,227.222L94,226.472L95.944,225.278L96.944,224.833L97.5,224.5L99,224L97.5,223.556L96.944,223.75L95.944,224L94,225.028L92,226.333L90,227.694L89,228.417L87,230.083L85,232L83,234L81.611,236L80.389,238L78.889,239.278L77.972,239.667L77,240L75,240L73,239.5L71.333,238.5L70.389,237L70.361,236.028L71,234L72.472,235L73.278,235.361L74,235.611L76,235.472L78,234.583L80,233.333L80.944,232.694L82.5,231.694L84,231L83,230L83,228L77,228L77.778,226.583L78.306,226.194L79,225.444L80.5,224.528L82,224L80.5,223.389L79.944,223.583L78.944,223.75L77,225L76,225.639L75,226.389L73,228.056L71,229.75L70,230.5L68,231.5L67,231.75L66.5,232L65,232L64.278,230.5L64.25,230L64,229L64,228.056L64,226L65.5,226.25L66,226.389L67,226.583L69,226.667L70,226.472L72,225.611L72.944,225.083L73.944,224.639L74.5,224.333L76,224L74.389,222.583L73.25,221.417L72,220L72.417,218.556L72.75,217.444L73,216L71.5,216.333L70.944,216.639L69.944,217.111L68,218.333L66,219.583L64,220.5L63,220.75L61.5,221L60,221L60,219L62,219L63,218.694L64,218.361L65.889,217.333L66.694,216.639L67.222,216.25L68,215L66.5,215.667L65,216.389L64.5,216.667L63,217L63.361,215.833L63.694,215.556L64.25,215L65.639,214L66.389,213.389L68,212.472L69,212.139L70.667,211.361L71.639,210.389L72,209L70.5,209.278L68.944,209.833L68,210.167L67,210.528L65.5,211L64,211L64.361,209.583L64.722,209.167L65.333,208.333L67,207L69,205.444L70,204.833L72,203.611L74,202.389L75,201.806L77,200.556L78,200L80,198.611L81,198.083L83,197.168L84,196.722L86,195.611L88,194.389L89,193.833L90,193.25L92,192.222L93,191.778L94,191.222L96,190.222L97,189.75L98,189.167L99,188.611L101,187.389L103,186.25L104,185.778L106,184.75L108,183.639L109,183.056L111,182.056L112,181.611L114,180.583L116,179.389L118,178.194L120,177.083L120.944,176.639L122.5,176.111L124,176L123.75,177.5L123.611,178L123.25,179.5L123,181L124.222,180.222L124.583,179.694L125.194,179L126.25,177L127.361,175L127.944,174L129,172L129.5,171L130.389,169L130.722,168L131.194,166L131.389,165L131.611,164L131.917,162L131.972,161L132,159L132,157L132,156L132.389,154L132.611,153L132.917,151L132.972,150L133,148L133,146L133,137L133,109L133,103L133,101L133,100L133,98L133.222,97L133.389,96L133.778,94L133.917,93L134,91.028L134,90.111L134.25,89.306L134.278,88.778L135,88ZM386,88L386,203L384.75,203.75L384.333,204.222L383.556,205L381.917,206.278L380.972,207L379,208.028L377,209.278L376,210.028L374,211.583L373,212.306L372,213L370,214.333L369,215L368,215.611L367,216.194L365,217.389L363,218.611L362,219.167L361,219.75L360,220.222L358,221.222L357,221.75L355,222.611L354,223L352,223.611L351,224L349,224.583L348,225.028L346,226L344,226.833L343,227.25L342,227.75L340,228.611L338,229.389L336,230.194L335,230.611L333,231.389L332,231.806L331,232.167L330,232.556L329,232.833L327,233.444L326,233.833L324,234.611L322,235.389L320,236.194L319,236.611L317,237.389L316,237.806L314,238.611L312,239.389L310,240.25L309,240.75L307,241.528L305,242L303.5,242L302,242L302,244L300.5,244.083L299.944,244.222L298.944,244.389L297,244.778L296,245L294,245.306L293,245.611L291,246.389L289,247L287,247L285,247.083L284,247.222L282,247.611L280,248L279,248.056L277,248.389L275,248.778L274,249L273,249L271,249.083L270,249.222L268,249.611L266,250L265,250L263,250L261,250.028L260,250.083L258,250.389L257,250.611L255,251L254,251L253,251L251,251L245,251L227,251L227.361,249.75L227.722,249.333L228.333,248.583L230,247.167L231,246.444L233,245.25L235,244.25L236,243.833L238,243L240,242L241,241.389L243,240.417L245,239.694L246,239.389L247,239.111L249,238.417L250,238L252,237.056L253,236.639L254,236.194L256,235.444L258,234.833L259,234.556L261,233.722L262.972,232.528L264.778,231L266.361,229L267.833,227L268.528,226L269.528,224L270,222L270.361,221L270.611,220L270.917,218L270.972,217L271,215L270.972,213L270.917,212L270.611,210L270.361,209L270,208L269.611,206L269,204L268.389,202L267.778,200L266.917,198L265.917,196L265.5,195L265,193L265,191L265,190L265,189L265,187L265.222,186L265.611,184L265.917,182L265.972,181L266,180L266,178L266,174L266,172L266,170L266,169L266.417,167L266.722,166L267.611,164L268.222,163L268.889,162.028L270.389,160.222L272,158.611L273,157.806L275,156.222L276,155.472L278,154.194L279,153.611L281,152.389L282,151.806L284,150.611L286,149.389L287,148.806L289,147.556L290,146.833L292,145.444L294,144.194L295,143.611L297,142.333L298,141.667L300,140.389L301,139.806L303,138.611L304,138L305,137.333L306,136.667L308,135.333L309,134.667L311,133.389L312,132.806L314,131.556L315,131L317,129.583L318,129.028L320,128L321,127.306L323,126.083L325,125L326,124.417L328,123.111L330,121.639L331,121L333,119.444L335,118.25L336,117.75L338,116.611L340,115.389L342,114.25L343,113.75L344,113.167L346,112.056L348,111L349.972,110L351.778,108.694L352.611,108.083L354.222,107.056L355,106.611L357,105.583L359,104.417L360,104L362,103L363,102.361L364,101.722L366,100.278L367,99.611L369,98.472L370,98L371,97.306L372,96.667L374,95.333L376,94L377,93.306L378,92.611L379,92L380,91.139L380.944,90.417L382.5,89.25L384,88L386,88ZM216,91L217.5,91.361L218,91.694L220,93L221,93.611L223,95L225,96.083L226,96.5L228,97L229,97.056L231,97.472L232,97.833L234,98.528L235,98.75L236,99L240,99L241,99.028L242,99.083L244,99.389L245,99.611L247,100L255,100L257,99.611L258,99.389L260,99.056L261,99L263,98.611L264,98.389L266,98L268,97.611L270,97.139L271,97L272,96.611L273,96.306L275,95.611L276,95.167L277,94.722L278,94.167L280,93.056L282,92.083L283.944,91.417L284.5,91.25L286,91L285.917,92.5L285.583,94.056L285.306,95L284.694,97L284.389,98L283.861,100L283.639,101L283.361,102L282.833,104L282.556,105L281.75,107L281.25,108L280.861,109L280.472,110L280,112L279.944,113L279.528,115L278.833,117L278.444,118L277.861,120L277.611,121L276.972,123L276.194,125L275.806,126L275.389,127L274.667,129L274.333,130L273.611,132L273.194,133L272.389,135L271.611,137L270.806,139L270.389,140L269.667,142L269.333,143L268.972,144L268.611,145L267.75,147L267.25,148L266.861,149L266.444,150L266.167,151L265.639,153L265.361,154L265,155L264.611,157L264.306,158L263.694,160L263.389,161L262.861,163L262.639,164L262.361,165L262,166L261.639,168L261.389,169L261,171L260.917,173L260.611,175L260.221,177L260,178L259.917,180L259.611,182L259.25,184L259.167,185L259.417,187L259.694,188L260.389,190L261.25,192L261.778,193L262.75,195L263.639,197L264,198L265,200L265.611,201L266.528,203L266.833,204L267.444,206L267.833,207L268.528,209L268.75,210L268.917,211L269,213L269,218L268.972,219L268.917,220L268.528,222L268,223L267.722,224L267,225L266.528,226L264.917,228L263.972,229L262,230.5L260,231.583L258,232.389L256,233.194L255,233.611L253,234.389L251,235.194L250,235.611L248,236.389L246,237.194L245,237.611L243,238.389L242,238.833L241,239.25L239,240.222L238,240.778L237,241.222L235,242.25L234,242.833L233,243.389L231,244.611L229,245.833L228,246.472L226,248.056L225,249L224,249.778L222.222,251.389L221.389,252.222L220.611,253.083L218.917,255L217,257L216,258L214.389,260L213.611,261L211.944,263L210.222,265L209.389,265.778L208.639,266.611L207.861,267.389L206.361,269.083L204.778,271L203.917,272L202,273.528L200,274.806L199,275.389L197,276.583L196,277.083L195,277.5L194,277.75L193,278L191,278L189,278L188.417,276L188.222,275L188,274.5L188,273L189.5,273.667L191,274.361L192,274.611L193.972,274.472L195.75,273.5L196.5,272.75L197.5,271.028L197.917,269.5L198,268L197,267L193,267L193,265.5L193.333,265L194.333,263.083L196,261.472L197.889,260.167L198.667,259.583L199.639,258.417L200,257L198.5,257.694L197.944,258.083L196.944,258.722L195,260.194L193.389,261.806L192.639,262.611L191.167,264.222L190.444,265.083L189.25,267L188.778,268L188.222,269L187.75,270L186.639,272L186,273L185.639,274L185.333,274.5L185,276L183.5,276.778L182.944,277.278L181.944,278L180,279.278L178.5,280L177,280L176.417,278L176,276.056L176,274L179,274.5L180.972,274.194L181.917,273.639L183.583,272L184.972,270L185.583,269L186,268.056L186.722,266.5L187,265L185.5,264.75L183.944,264.389L182,264.083L180,264L180.278,262.5L180.917,261L182,259L183.417,257L185,255.056L185.972,254.056L188,252L187,252L185,251L184.306,252.5L183.917,253.056L183.306,254.056L182.667,255L181.333,257L180,259L178.667,261L178,262L177.389,263L176.833,264L176.25,265L175.25,267L174.861,268L174.444,269L173.861,271L173.611,272L172.889,274L172.361,274.694L170.889,276L169.972,276.5L168,277.389L167,277.694L165.5,278L164,278L163.75,276.5L163.389,275L163.222,274.056L163,273.5L163,272L166,272.5L168,272.194L168.972,271.639L170.75,270L171.528,269L172.75,267L173.222,266L173.75,265.056L174.167,264.056L174.5,263.5L175,262L173.861,262.417L173.667,262.083L173,261L168,261L168.278,259.5L168.944,258L170.194,256.056L171.528,254.5L173,253L171.5,253.361L170,254.333L168.417,256.028L167,258L165.694,260L165,261L164.694,261.5L164,263L162,263L161.222,261.5L159.889,260.028L158,258.472L156,257L156,255L157.472,254.222L158.75,253L159.222,252.472L160,251L158.5,251.361L157,252.333L155.389,254.028L153.861,256L153,257L152.389,258L151.694,259L150.389,261L149.278,263L148.861,264L148.278,265.5L148,267L146.5,267.667L145.944,268L144,269L143,269.361L142,269.806L140,270.528L138,271L136,271L134,270.278L132.5,269L131.944,268L131.25,266L131,264.056L131,263.056L131,261L132.5,261.667L134,262.361L135,262.611L137,262.5L139,261.75L140,261.222L141,260.75L143,259.528L145,258L146.889,256L147.694,255L148.361,254L149,252L149,250.111L148.361,248.778L147,248L146.972,249.5L146.75,251.056L146.5,252L145.5,254L143.917,256L142,257.583L140,259L138,259.694L137,260L135.5,260L134,260L134,258L134,257L134.5,255L135.5,253L136.25,252L137,251.028L139,249.222L140.889,247.611L141.667,246.833L142.639,245.472L143,244L141,245L140,245L140.361,243.5L141.333,242L142,241L144,239.083L145,238.222L147,236.611L149,235L151,233.083L153,231.472L154,230.833L156,229.611L157,229L159,227.583L161,226L163,224.083L164.917,222.389L165.778,221.639L167.389,220.139L169,218.639L169.806,218L170.611,217.167L171.389,216.444L173,215.25L174,214.75L176,213.528L177,212.778L179,211.278L180,210.611L181,210.028L183,209L185,207.667L187,206.306L188,205.611L189,205L191,203.611L193,202.611L194,202.083L195,201.528L197,200.167L198,199.444L199,198.833L201,197.528L202,196.75L203,196L204.972,194L205.917,193L207.583,191L208.972,189L210.167,187L210.722,186L211.556,184L211.833,183L212,182L212.611,180L212.917,178L212.972,177L213,175L213.389,173L213.611,172L213.917,170L213.972,169L214,167L214,166L214,163L214,161L214,160L214.389,158L214.611,157L214.917,155L214.972,154L215,152L215,150L215,145L215,143L214.917,141L214.611,139L214.389,138L214.167,136L214.389,134L214.611,133L214.917,131L214.972,130L215,129L215,127L215,125L214.972,124L214.917,123L214.611,121L214.389,120L214,118L214,117L214,115L214,114L214,111L214,106L214,104L214,102L214.222,101L214.389,100L214.778,98L214.917,97L214.972,96L215,94.028L215,93.111L215.25,92.306L215.278,91.778L216,91ZM212,105L212,115L210.5,115.5L209.944,115.833L208.944,116.278L207,117.389L206,118.028L205,118.667L204,119.333L202,120.667L201,121.333L199,122.611L197,123.806L196,124.389L194,125.694L192,127.139L190,128.611L188,130L187.5,130.306L186,131L186,129L186.389,127L186.611,126L186.806,125L187.194,123L187.389,122.056L187.75,120.5L188,119L189.5,118.306L190.972,117.306L192.611,116L193.389,115.306L194.222,114.583L195,113.806L197,112.194L198,111.417L199,110.694L201,109.389L203,108.25L204,107.778L205,107.25L207,106.389L208.944,105.694L210.5,105.25L212,105ZM137,113L137,136L136.972,137L136.917,138L136.611,140L136.389,141L136,143L136,146L135.972,148L135.917,149L135.611,151L135.389,152L135,154L135,158L137,158L137,156L137,155L137.389,153L137.611,152L137.917,150L137.972,149L138,148L138,146L138,145L138.389,143L138.611,142L138.917,140L138.972,139L139,138L139,136L139,130L139,113L137,113ZM221,115L221,124L220.972,126L220.917,127L220.611,129L220.389,130L220,132L220,147L219.972,149L219.917,150L219.611,152L219.389,153L219,155L219,171L221,171L222,170L221.75,168.5L221.389,167L221,165L221,164L221,162L221,160L221,159L221.389,157L221.611,156L221.917,154L221.972,153L222,151L222,150L222,147L222,146L222,144L222,143L222.389,141L222.611,140L222.917,138L222.972,137L223,135L223,132L223,131L223,129L223,128L223.389,126L223.611,125L223.917,123L223.972,122L224,120L224,118.056L224,115L221,115ZM212,118L212,128L212.389,130L212.611,131L212.917,133L212.972,134L213,136L213,156L212.917,158L212.778,159L212.389,161L212,163L212,170L211.972,172L211.917,173L211.611,175L211.222,177L211,178.5L211,180L209,180L208.972,181.5L208.75,183.028L208.5,184L207.5,185.611L205.917,187.194L204,188.806L202,190.361L201,191.139L200,191.833L199,192.556L198,193.167L197,193.806L196,194.389L194,195.694L192,197.194L190,198.778L189,199.528L187,200.833L186,201.444L184,203L183,203.611L181,205L180,205.667L177,207.667L174,209.667L173,210.333L171,211.611L170,212.194L168,213.389L166,214.611L164,215.75L163,216.25L161,217.444L160,218.167L158,219.611L156,221L155,221.611L154,222.194L152,223.444L150,225L148,226.361L146,227.75L145,228.306L143,229L141,229L139,228.611L138,228.361L136,227.806L135,227.361L134.5,227.139L133,226L133,224L134.5,222.583L135,222.167L136,221.333L138,220L139,219.139L140,218.361L141,217.639L142,217L144,215.389L145,214.694L147,213.389L148,212.833L149,212.278L151,211.472L152,211.222L154,210.806L156,210.361L157,210.139L158,210L159,209.611L161,209L162,208.472L164,207.611L166,207L168,206.361L169,206L171,205L172,204.389L174,203.361L175,202.694L176.917,201L177.778,200L179.306,198L180.583,196L181,195L181.5,194L181.944,192L182,191L182.389,189L182.611,188L182.917,186L183,184L183,183L183,181L183,179L182.972,178L182.917,177L182.611,175L182.389,174L182,172L182,171L182,170L182,168L182,163L182,154L182,152L182,150L182,149L182.389,147L182.611,146.056L182.778,145.056L182.917,144.5L183,143L185,143L185,134L186.5,133.639L188,132.667L189,132L190,131L192,129.083L194,127.417L195,126.694L197,125.389L198,124.806L200,123.611L201,123L203,121.806L204,121.194L205,120.611L207,119.417L208.944,118.5L210.5,118.083L212,118ZM130,147L130,160L128.528,160.833L128,161.056L126.389,162.083L125.611,162.722L124.778,163.417L122.972,165L121,166.611L119,168.222L117.389,170.028L115.806,172L115,173L113.417,175L112.722,176L111.639,178L111,179.5L111,181L109.5,181.278L107.944,182L107,182.389L106,183L104,184L103,184.5L101,185.5L99,186.583L98,187.194L96,188.417L94,189.528L93,190.056L91,191.167L90,191.75L89,192.222L87,193.25L86,193.833L85,194.389L83,195.583L81,196.5L79.5,197L78,197L78.25,195.5L78.417,195L79,193L80,191L81.389,189L82.861,187L83.611,186L84.306,185L85.694,183L86.417,182L87.222,181L89,179L90,178L92,176L94,174L97,171L99,169L100,168.028L101,167.083L103,165.389L104,164.611L105,163.778L106,163L107,162.056L109,160.389L110,159.639L112,158.139L113,157.361L114,156.639L115,156L117,154.389L118,153.694L120,152.306L121,151.611L122,151L124,149.583L125.944,148.444L126.5,148.167L128,147L130,147ZM129,164L128.75,166.056L128.5,167.056L127.5,169L125.917,171L124,172.528L123,173.139L122,173.75L120,174.833L119,175.389L117,176.583L116,177.111L115.5,177.472L114,178L114.361,176.5L114.722,176L115.306,175L116.806,173.083L118.389,171.389L119.222,170.611L121,169L123,167.083L123.944,166.278L125.5,165.083L127,164L129,164ZM169,171L169,182L172,182L172,171L169,171ZM387,206L387,223L386.889,225L386.278,227L384.889,229L383.972,230L383,230.694L382,231.389L381,232L379,233.083L377,234.333L376,235L375,235.611L373,236.75L372,237.222L370,238.222L369,238.778L368,239.222L367,239.778L366,240.222L364,241.25L363,241.833L362,242.361L360,243.389L358,244.139L357,244.444L355,245.194L354,245.611L352,246.389L351,246.806L349,247.611L347,248.389L345,249.25L344,249.75L342,250.556L341,250.833L339,251.389L338,251.694L336,252.306L335,252.611L334,253L332,253.389L330,254L328,254.667L323,256.333L321,257L319,257.611L318,258L316,258.444L315,258.833L313,259.528L312,259.778L311,260L309,260.417L308,260.722L307,261.083L305,262L304,262.417L302,263.139L301,263.444L299,264.194L298,264.611L296,265.389L294,266.194L292,267L290,267.611L289,268L288,268.139L286,268.611L285,268.806L283,269.194L282,269.389L280,270L279,270.139L278,270.361L277,270.611L275,271L273,271L271,271.083L269,271.389L268,271.611L266,272L265,272L263,272L262,272L259,272L248,272L244,272L242,272L240,272.083L239,272.222L237,272.611L235,273L234,273L232,273L231,273L229,273L227,273.028L226,273.083L224,273.389L223,273.611L221,274L220,274L218,274L217,274L215,274L206,274L206.361,272.5L207.333,271L209,269L209.917,268L211.611,266L212.389,265L213.194,264L214.806,262L215.611,261L217.222,259L219,257L219.889,256.056L220.694,255.056L221.222,254.5L222,253L255,253L257,252.611L258,252.389L260,252.083L261,252.028L263,252L266,252L268,251.611L269,251.389L271,251.083L273,251L274,251L276,250.611L277,250.389L279,250.056L280,250L282,249.528L284,248.833L285,248.472L286,248.25L287,248.083L289,248L291,248L293,247.611L294,247.361L295,247.139L297,246.611L298,246.306L300,245.694L301,245.389L303,245L304,244.639L305,244.361L306,244.111L308,243.389L310,242.306L311,241.694L312,241.111L313,240.611L315,240L316,239.611L318,239L320,238.194L322,237.389L324,236.611L326,235.806L327,235.389L329,234.611L331,233.806L332,233.389L334,232.611L335,232.194L337,231.389L339,230.611L340,230.194L342,229.389L344,228.611L345,228.194L347,227.389L349,226.611L351,225.75L352,225.25L354,224.444L355,224.139L357,223.389L358,223L359,222.361L361,221.25L362,220.75L364,219.611L366,218.389L368,217.194L369,216.611L371,215.333L372,214.694L374,213.611L376,212.778L377,212.306L378,211.667L380,210L381,209.083L382.944,207.472L385,206L387,206ZM72,222L71.639,223.389L70.722,224.333L69.472,225L68,225L68,223L69,222L72,222ZM162,222L161.222,223.472L160.694,224L158.972,225.528L158,226.167L156,227.472L154,229L153,229.694L152,230.278L151.5,230.639L150,231L150.361,229.5L151.333,228.056L153,226.611L154.778,225.472L155.611,225L157.222,223.833L158,223.278L158.972,223L160.5,222.278L162,222ZM146,233L145.639,234.5L144.667,236.056L142.972,238L141,240L140,241L138.389,243L137.611,244L136.778,245L135,247L134.222,248L133.417,249L132,251L131.556,252L131,253L130.389,255L130,256L129.61,258L128.972,260L128.806,260.5L128,262L125.944,262L124,261.611L122,261.139L121,261L119,260.278L118,260L117,259.472L115,258.583L114,258.222L112,257.556L111,257.167L110,256.806L108,256L106,255.028L105,254.583L103,254L102,253.583L101,253.139L100.5,253L99,252L99,250L101,248.528L103,247L105,245.389L107,244L108,243.139L110,241.694L112,240.389L114,239.194L115,238.611L117,237.306L118,236.583L119,235.778L120,235L122,233L124,231.028L126,229.333L127,228.75L128,228.417L129,228.333L131,228.639L133,229.167L134,229.444L135,229.833L136,230.194L138,231L140,231.583L142,232L143.944,232.25L144.5,232.278L146,233ZM82,230L81.222,231L80.694,231.222L79.889,231.806L78.972,232.222L78,232.75L77,233.139L75.5,233.722L74,234L74,232.583L74.722,231.417L76,230.278L78,229.5L79.944,229.333L80.5,229.306L82,230ZM160,254L159,255L159,257L160,256.639L160.306,256.306L160.667,255.778L160.694,254.75L160,254ZM158,260L159,261L159,265L155,265L154,264L154,260L158,260ZM171,263L170.972,264.5L170.694,266.056L169.889,268L168.639,269.278L167.417,270L166,270L166,265L167,265L169,263L171,263ZM162,265L161.917,266.5L161.778,267.056L161.611,268.056L161.222,270L161,270.5L161,272L159.5,273.056L158.944,273.389L157,274.583L155,275.5L154,275.75L152.5,276L151,276L150.417,274L150,272.056L150,271.056L150,269L151.5,269.25L152,269.389L153,269.583L155,269.583L156,269.25L158,268L158.944,267.083L159.944,266.306L160.5,265.778L162,265ZM184,266L183.722,267.5L183,269L181.806,270.278L180.472,271L179,271L179,269.5L179.722,268.056L181,266.722L182.5,266.111L184,266ZM195,269L195,271L193,271L193,269L195,269Z" style="fill-rule:nonzero;"/>
    </g>
</svg>
