<?xml version="1.0" encoding="UTF-8"?>
<svg width="481px" height="213px" viewBox="0 0 481 213" version="1.1" xmlns="http://www.w3.org/2000/svg" xmlns:xlink="http://www.w3.org/1999/xlink">
    <!-- Generator: Sketch 42 (36781) - http://www.bohemiancoding.com/sketch -->
    <title>Page 1</title>
    <desc>Created with Sketch.</desc>
    <defs></defs>
    <g id="Page-1" stroke="none" stroke-width="1" fill="none" fill-rule="evenodd" stroke-linecap="round" stroke-linejoin="round">
        <g id="Desktop-Copy-4" transform="translate(-272.000000, -314.000000)" stroke="#000000" stroke-width="10">
            <g id="Page-1" transform="translate(277.000000, 319.000000)">
                <path d="M29.053,0.008 C29.053,0.008 66.801,7.453 65.254,38.463 C63.655,70.506 15.13,72.171 16.423,45.701 C17.17,30.416 28.572,12.274 127.626,14.957 C233.797,17.834 252.423,32.55 350.579,31.963 C443.872,31.406 470.432,0.008 470.432,0.008" id="Stroke-1"></path>
                <path d="M119.368,14.764 C119.368,14.764 105.735535,47.6776261 102.809,83.362 C98,142 80.828,149.649 64.205,150.139 C22.935,151.355 25.095,89.548 68.343,89.837 C89.058,89.975 92.498,127.943 64.205,128.496" id="Stroke-2"></path>
                <path d="M148.302,75.742 C163.138,78.93 171.621,98.085 167.235,118.491 C162.85,138.896 147.245,152.874 132.409,149.686 C117.574,146.497 109.091,127.342 113.476,106.936 C117.862,86.531 133.467,72.553 148.302,75.742 Z" id="Stroke-3"></path>
                <path d="M130.839,79.637 C130.839,79.637 125.212,107.855 140.356,128.542 C156.032,149.956 164.552,148.995 173.058,147.8 C181.989,146.545 189.685,135.348 195.964,105.461 C202.093,76.287 199.986,53.932 188.588,54.213 C179.883,54.427 181.062,75.01 201.754,74.519 C211.453,74.29 221.749,69.941 230.346,72.431 C231.94,72.893 227.406,91.407 225.455,105.461 C223.448,119.914 224.863,144.619 241.578,143.88 L241.578,143.825 C250.391,143.432 258.205,131.373 264.484,101.486 C270.613,72.312 268.509,50.157 257.108,50.238 C247.278,50.307 249.028,70.609 270.274,70.544 C279.975,70.515 290.111,66.189 298.866,68.456 C300.472,68.872 295.926,87.432 293.975,101.486 C291.968,115.939 290.805,140.644 307.52,139.905 C324.235,139.165 369.117,105.483 369.75,77.826 C370.335,52.229 317.408,56.871 317.937,105.461 C318.075,118.175 331.598,137.002 354.805,136.218 C405.086,134.521 417.487,66.287 409.464,53.334 C397.136,33.429 379.51,55.074 405.964,67.37 C431.093,79.051 455.429,97.758 444.553,123.143 C436.371,142.237 412.387,153.648 369.75,154.917 C159.579,161.174 57.687,179.833 0.8423,202.468" id="Stroke-4"></path>
            </g>
        </g>
    </g>
</svg>