<?xml version="1.0" encoding="UTF-8" standalone="no"?>
<!DOCTYPE svg PUBLIC "-//W3C//DTD SVG 1.1//EN" "http://www.w3.org/Graphics/SVG/1.1/DTD/svg11.dtd">
<svg width="100%" height="100%" viewBox="0 0 1078 902" version="1.1" xmlns="http://www.w3.org/2000/svg" xmlns:xlink="http://www.w3.org/1999/xlink" xml:space="preserve" style="fill-rule:evenodd;clip-rule:evenodd;stroke-linejoin:round;stroke-miterlimit:1.41421;">
    <g transform="matrix(6.12323e-17,1,-1,6.12323e-17,1067.38,0.465659)">
        <g>
            <path d="M281,169C277.74,173.055 278.302,177.058 277.83,182C277.225,188.336 276.464,194.668 275.831,201C274.326,216.053 274.352,232 275,247C275.223,251.053 276.835,255 276.74,259C276.587,265.528 275.71,273.627 274.33,280C273.278,285 271,289 271,294C276.198,295.625 277,300.402 279,305C283.93,315.774 289.269,325.73 295,336C296.941,339.18 301.219,351.17 306,346C309,354 310,361.808 312,370C316,386.146 319.753,402.182 324.885,418C329.595,432.515 333.761,448 339.453,462C344.203,473.809 351.74,485.556 354.541,498C355.883,504 353.596,510 354.17,516C355.315,528.032 359,540.48 362.566,552C367.562,568.209 373.438,584 381.475,599C382.989,601.826 384.439,605.077 386.633,607.447C388.482,609.444 390.951,610.53 392,613.13C397.167,624.465 398.18,638.088 401.489,650C410.269,681.607 418.78,713.712 425.335,746C426.41,751.298 426.618,756.722 427.898,762C429.769,769.712 433.173,778 431.741,786C430,795.636 424.706,804.717 421.519,814C418.238,823.559 417.596,834 418,844C418.585,856.344 422,869 427.385,880C429.982,885.479 433.667,890.446 436,896C447,895.771 452,890.815 454,880C457.312,883.122 458.529,886.568 459.388,891C461.735,903.104 464.217,915.299 468.17,927C469,930 470.418,937.563 474,938.079C480,939 485,927.173 487,923.001C488.948,919.11 490.701,915.121 492,911C496,920.73 495.94,932.634 497.184,943C498.785,956.334 501.24,971.056 504.847,984C506.37,989.466 506.613,1000.13 510.596,1004.28C513.893,1007.71 521.237,1012.49 525.996,1013C532,1013.4 538.658,1011 545,1011C550.482,1011.03 555.576,1012.71 561,1013C572.706,1013.49 584.342,1013.04 596,1014.17C604.553,1015 613.427,1017.59 622,1015.22C624.923,1014.4 628.438,1013.15 630.411,1010.73C633.387,1007.07 634.402,998.707 628.941,996.832C626.221,996 622.812,997 620,997C613.73,997.137 607.258,997.339 601,997C593.284,996.382 585.761,996 578,996C565.617,996 553.371,994.001 541,994C541.334,986.696 544,980.01 545.704,973C549.784,956.135 554.799,939.663 559.57,923C570,886.204 577.187,848.447 588.964,812C593.194,799 596,785.272 599.654,772C601.409,765.419 603.24,757 607.174,751.317C609.666,747.739 616.242,749 620,749C632.472,749 643.776,750.614 656,753C661,754 669.754,758.746 672,752C683.98,752.099 697.176,758 709,755C707.31,750.404 704.605,750.055 700,750C701.609,746.051 705.226,738.795 701.972,734.742C698.496,730.411 686.882,732 682,732L626,732C620.635,732 607.581,734.386 603.934,729.682C600.376,725.091 598.891,716.539 597.291,711C594.293,700.626 590.953,690.333 588.455,679.83C587.302,675 587.535,670 586.244,665C576,627 566.964,588.658 558.88,550C557.273,542.314 554.673,534.758 553.439,527C552.174,519.042 552.182,511 550.996,503C548.819,488.373 547,473.796 546,459C545.643,452.481 546.924,443.258 544,437.228C542.22,433.19 537.464,434 534,435L534,427C535.696,426.744 537.34,426.559 538.931,426C551.486,420.272 537.31,406.361 534,400L543,396C548.417,415.301 577.957,424.103 588.965,404.714C592.637,398.245 593.232,390.205 594.181,383C595,376 596.42,369.119 596.911,362C597.736,350.009 597.926,334.733 604.804,324.286C607.975,319.47 613.356,315.664 618,312.378C622.413,309.255 627.694,307.42 633,306.592C638.384,305.751 645.682,306.204 651,307.47C661.837,310.05 675.297,314.354 683.996,321.468C700.77,335.186 709.763,362.774 697.62,382C693.479,388.434 685,393.123 678,395.757C672.797,397.674 665.446,398.387 667.438,406C670.9,419.186 686,411.119 693,406.772C697.28,404.106 702.291,401.564 705.791,398C713.691,389.613 718.706,375.376 718.985,364C719.472,344.194 710.425,323 695.826,309.286C689.801,303.674 682.48,300.567 675,297.445C652.671,288.128 627.312,284.164 606.911,300.444C601.635,304.654 594.734,309.475 590.875,315.036C588.327,318.707 587.584,322.802 586.169,327C580.343,344 581.24,361.423 578.729,379C577.8,385.506 577.31,405.448 566.17,398.142C554,390.243 550.753,374.324 551,361C551,355.431 557,343.366 549.945,340.608C546.199,339.15 540.337,342.016 538.316,345.299C534.614,351.313 535.297,363.093 535,370C529.427,363.621 529,353 527,345C522.479,326.584 517,308.342 512.299,290C504.208,259 494.782,228.122 486.759,197C484.205,187.093 482.472,177 479.7,167C475.49,152.043 471.74,137.008 467.711,122C465,112 460.912,101.46 460,91C479,91 498,93.277 517,95.169C529.621,96.431 542.316,98.09 555,96.424C560.436,95.711 566.527,95.19 572,95.179C577.203,95.169 581.614,96.273 583.431,90C587.241,76.725 573,76.089 564,77.427C558.682,78.215 553.378,79.725 548,80C540.948,80.269 533.991,79 527,78.17C514.38,77 501.646,76.373 489,75.17C481.372,74.444 473.64,75.446 466,75C459.902,74.483 454.175,73.004 448,73C444,60.486 430.465,74.056 426.332,79.036C412.404,95.815 395.818,109.2 384,128C381.249,132.365 377.646,136.048 376,141L374,141C371.74,135.123 367.304,130.231 363.834,125C357.276,115.113 350.806,105.564 343.756,96C337.309,87.254 331.82,76.674 324.765,68.576C319,62.069 312.969,48.658 302,52.254C293,55.185 291.287,65 288.718,73C286.295,80.557 286.926,88.272 285.675,96C283.23,111.109 280.188,126.625 280,142C279.928,148.374 278.998,154.637 279,161C279,164.104 278.596,167 281,169ZM386,56L387,57L386,56ZM298,241L294,240C293.812,241.572 292.535,245.026 293.863,246.312C295.889,248.276 301.5,246.191 303.999,246.035C315,245.345 325.695,243 337,243.001C367.975,243.138 403.31,253.159 427.255,273.333C434.773,279.667 444.398,288.702 448,298C443.839,299.091 439.552,300 436.572,303.329C429.879,311 436.498,323.392 444.455,327.393C447.834,329.092 455.848,326.003 460,326C470.459,358.552 479,391.778 487.522,425C489.554,433 490.63,441.081 492.804,449C501.414,480.367 512.39,511.271 519.486,543C532.81,602.58 541.616,663.279 546,724C547.541,743.682 554.946,763.277 555,783C542.905,785.765 527.956,785.701 516,781.711C508.912,779.343 502.714,775.139 496,772L496,769C500.931,766.536 504.697,763.152 506.94,758C508.678,754.006 508.979,749.716 511.634,746.093C513.701,743.274 516.828,740.517 520,739.085C522.93,737.795 527,738.246 528.547,735C531.583,727.803 524.964,716 523.336,709C521.539,701.371 521,693.663 519.741,686C518.211,676.769 515.334,668 512.684,659C511,653.751 510.702,648.312 509,643L506,643C504,648.357 498.994,651 495.374,655.184C490.864,660.433 486.232,665.827 482,671.424C479.287,675.372 477,680.332 473,683C469.189,660.581 462,639 456.594,617C449.576,589.179 441.95,561.555 433.71,534C429.178,519 426.599,503.151 422,488.004C419,477.735 414.177,468.206 410.887,458C406.863,445.52 404,432.482 399.9,420C395.185,406.2 389,393.254 383.198,380C380,373.05 377.544,365.758 373.975,359C372,355.556 368,350 368,346C368.259,342.26 372,338.582 373.25,335C374.587,331 376.76,324.31 376.286,320C375.41,312.023 367,305.245 361,301C362.851,297.005 365.972,294 368,290C356.288,289.129 352.365,302 350.551,311C347.377,326.801 342.947,343.153 337.167,358.17C335.31,363 335.238,369.622 331,373C333.871,380.234 344.442,392.477 353.699,388.141C358.352,386 361.714,378.625 363.215,374C366.423,364.11 361.839,360 359,351C369.502,358.705 372.931,370.731 378.206,382C390.318,408 398.807,434.545 407,462C409.85,471.534 414.556,480.544 417.367,490C419.885,498.473 420.756,507.446 423,516C428.433,536.517 435,556.693 441.229,577C445.36,590.79 448,605.074 451.885,619C458.263,642.748 466.89,666.499 470,691C470.808,696.349 468.645,702.554 468.375,708C467.9,717.594 468.792,728.521 470.442,738C471.919,746.484 477,755.411 482.468,762C484.729,764.748 488.276,767.007 489.938,770.17C493.934,777.777 494,786.555 494,795C494,830.532 500.512,869 488,903C484.605,912.448 483,924.142 475,931C469,918.487 467,904.443 464.539,891C463.505,885.607 461.707,880.472 461,875C459,876 458.481,876.402 457,878C455.821,874.013 458,869.628 459.806,866C464.442,856.534 473.918,850.405 478,841C472.85,840 470.272,832.604 468.833,828C467.792,824.668 468.496,821.33 467.694,818C466.995,815.094 465.184,812.595 464.306,809.778C463,806 463.463,802 462.778,798C462,794 460,790.167 459.389,786C458.564,781.373 457.96,775.351 456.278,771.028C455.716,769.583 454.745,768 452.972,767.833C451,767.76 449.457,769.53 448,770.528C444.488,773 441,775.723 437,777C434.3,755.744 428.744,734.781 423.742,714C415.835,681.159 407.243,648.623 399.402,616C397,606.395 392,597.497 390,588C395.263,582.076 389.786,571.089 386.54,565C381.713,556 379,545.825 376.444,536C374,527.696 371.442,519.577 370.429,511.004C370,508.029 371.357,504.732 370.466,502C368,494.509 361.333,492.065 357,486.505C351.207,478.654 347.296,467.213 344,458C340.74,448.803 338.653,439.208 335.572,430C332.329,420.308 327.928,411 325.285,401C321,385.481 319.321,369.442 315.236,354C309.448,332.119 303.832,310.514 300.572,288C299.46,280.326 297,272.758 297,265C301.868,267.373 304.511,272.014 308,276C316.643,285.666 324.726,295.66 332.486,306C335,309.538 337.214,313.503 340,317C340.991,318.134 342.681,320.436 344.549,319.654C346.475,319 345.529,316.295 344.873,315C342.56,310.405 338.697,306.113 335.626,302C325.327,288.208 314.373,274.46 302,262.289C300.349,260.49 298.286,258.777 296.969,256.561C295.867,254.706 295.539,251.174 292.91,250.77C290.456,250.393 289.489,253.086 289.438,255.016C289.286,260.734 291.578,267.265 292.285,273C295.229,297 301,320.469 306,344C302.762,341 301,337 298.964,333C295.385,326.661 289.619,319.6 289.579,312C289.541,304.564 292.938,297.53 293,290L290,290C289.533,295.359 288.391,301.741 285,306C282.92,301.388 279.503,296 278.665,291C276.769,279.73 281.87,268.109 280.83,257C279.701,245 278.506,233.173 279,221C279.847,202.562 282.652,184.378 283.91,166C284.366,159.351 283.634,152.649 284,146C285.754,121.687 288.297,96.67 294,73C297.566,73.775 301.633,72.507 304.981,73.643C308.456,74.822 314.265,82.584 315.224,86.089C316.358,90.236 313.776,96.791 313,101C311.272,112 309.854,123.014 308.271,134C304.812,158.002 303.64,182 301.91,206C301,217.8 298,229.071 298,241ZM439,88C436.259,93.787 430.473,98 425,101C427.806,95.375 433.545,91 439,88ZM320,93C324.626,99.662 329.862,105.721 334.884,112.089C337.656,115.604 341.27,119.599 342.486,124C344.841,132.522 339.726,143.641 338.255,152C334.574,173 332.377,194.236 327.884,215C326.398,222 326.846,231.811 322.583,237.682C320.731,240.232 317.773,239.831 314.999,240.374C310.951,241.168 307,242.468 303,243C303,228.072 306.412,213 307.83,198C309.218,183.42 308.613,168.574 310.174,154C310.888,147.33 312.823,140.638 313.92,134C315.397,125.06 316.539,116 317.83,107C318.484,102.462 318.231,97.207 320,93ZM442,93C447.519,101.326 447.981,112.551 450.77,122C457.702,145.483 463,169.259 468.898,193C473,210.15 478.962,227 483.421,244C489.257,266.361 494.444,288.823 501,311C505.385,325.631 508.748,340.332 512.784,355C515.288,364.102 519.399,374.644 520,384C513.58,376.748 510.995,364 507.495,355C503,343.509 497.948,332.253 492.911,321C491.25,317.289 488.478,314 487.297,310.015C485.538,304.188 491.691,300 488.365,293.59C486,289.277 482.403,286 479.475,282C473,273.585 466.596,265.246 460,257C443.273,236.089 426.935,214.508 411,193C404.558,184.29 397.759,176 391.656,167C389.555,164 385.253,160 385,156C384.807,147.765 394,136.423 400,131.665C412.499,121.562 428.363,112.051 438.597,99.573C440.214,97.602 440.573,95.055 442,93ZM555,152C555.446,173.62 560.742,193.817 564,215C564.948,220.433 570.17,230.469 566.958,235.697C564.722,239.334 558.647,239 555,239.668C544.634,242 534.434,243.086 524,245C519,245.791 510.177,248.617 510.377,255.086C510.595,262.178 518.96,262.34 524,261.335C533.549,259.431 543.352,258.002 553,256.573C557.441,256 562.504,254 566.985,254.238C570.739,254.528 573,257.765 577,258C582.456,258.094 586.23,255.287 587,250C596.412,248.784 605.652,246.116 615,244.464C628,242.163 641,240.56 654,237.268C661.224,235.421 675.553,233 670.393,221.344C667.269,214.384 654,219.694 649,220.789C627.716,225.322 605.993,228.446 585,234C581.221,206 572,179.614 572,151C585.96,151 600,149.655 614,149.039C620.47,148.754 627.695,149.542 634,148.698C640.56,147.819 648.748,139.56 643.971,132.569C640.359,127.282 630,130.048 625,130.718C607.494,133 589.648,134 572,134C570.604,127.284 564.915,126.475 559,129C555.391,130.346 553.345,134 549.83,135.397C545.818,137.045 540.289,136.705 536,137.282C527.279,138.457 518.682,140.204 510,141.561C501.97,142.816 491.227,141.595 484,146.279C479,149.575 480.85,157 486,159C491.619,161.151 499.366,159.086 505,158C511.188,156.564 517.715,156.108 524,155.282C534,154 544.807,152.084 555,152ZM350,134C353,142.625 363.41,149 365.393,158C366,161.047 364.538,164.124 363.745,167C362.455,171.686 361.607,176.371 360,181C355.991,193.34 353.801,206.413 350.58,219C349.245,224.217 349.652,233.254 345.91,237.397C342.726,241 332.388,239 328,239C333.895,210.427 339.178,182 343.285,153C344.199,146.575 346.483,140.496 347,134L350,134ZM371,166C374.642,171.736 378.755,177.289 382.692,182.83C385,186.303 388.476,189.718 389.461,194C390.396,198.063 388.628,203 387.916,207C385.562,220.283 380.31,232.34 376,245C367.796,244 360.357,241.023 352,241C352.234,229.659 356.253,219 359,208C360.879,201.07 361.643,194 363.576,187C365.415,180.391 366.61,171.338 371,166ZM395,200C398.969,203.366 401.753,208.02 405,212C407,214.315 409.782,216.803 410,220C410.48,223.667 408,228.524 407,232C404.967,238.481 403.364,245.36 402,252C394.996,251.675 388.952,248 382,247C382.287,240.727 384.904,235.005 386.576,229C389.22,219.498 391,209.006 395,200ZM415,226C423,233 435.407,245 430.985,256C429.84,259 428.461,264.001 424.867,264.573C420.626,265.249 417.832,261 414.83,259C412,257 409.255,256.293 406,256C406.664,251.504 408.398,247.386 409.522,243C410.991,237.265 411.482,231 415,226ZM439,255C442.207,259.744 445.818,264.205 449.329,268.729C450.964,271 453,273.138 452.929,276.004C452.647,280.588 448.532,284.193 448,289C443.539,285.368 440.366,280.364 436.576,276.039C434.768,274 431.853,271.829 431.528,269C431,264.443 435,259 437,255L439,255ZM462,294C465.884,293.553 468.606,293 470,297C461.541,297.363 455.915,299.455 450,292C453,288.725 454.673,284.315 456,280C462.658,282.077 462.732,288.044 462,294ZM529,432C524.89,431.36 521.775,426.197 518.168,426.207C513.528,426.219 516.976,438.128 517,441C510.371,437.241 509,428 507.269,421C506.543,418.215 505.356,415.091 505.566,412.171C505.789,409.084 508.244,407.094 507.504,403.829C505.944,397 502,390 499.958,383C494,364.249 489.689,344.014 477.461,328.04C472.807,322 465.572,319.316 458,320.185C453.485,320.704 448.403,323.511 444.213,320.397C440,317.293 436.832,308.495 442.279,305.027C444.389,303.683 447.586,303.746 450,303.424C457.243,302.458 468.667,300.175 474.715,305.094C482.487,311.416 486.812,320.189 491,329C499.233,345.466 505,363.214 512,380.089C514.552,385.801 515.612,393.743 519.724,398.53C524.342,404 531.905,406.069 536.196,412.039C537.698,414.129 539.83,418 537.957,420.396C534.185,425.418 529,416.783 525.465,417.63C523.852,418.002 524.815,420.13 525.188,421.024C526.77,424.813 528.39,428 529,432ZM361,307L361,309C356.538,314.046 360.722,324.536 361,331C368.852,328.105 363,316.671 363,310C370.947,314.674 370,322.126 368.399,330C367.773,333.039 367.239,337.077 364.442,339C360.418,341.699 354,339.094 350,338C350,334 351.501,330.093 352,326L354,326C353.942,328.785 353.648,331.291 353,334C363.201,333 355.848,321.63 355,316C354.767,312.665 355.745,309.236 356,306C357.878,306.176 359.199,306.438 361,307ZM467,326C473.401,329.33 475.804,334.53 479,340.576C486.88,354.51 489.749,369.154 494.674,384C496.413,389.241 504,401.43 499,406C499.915,411 497.956,414.336 496.761,419C495.762,423 495.736,427.034 495,431C491.449,426.54 491,420.514 489.781,415.089C488.615,410.012 486.978,405.182 486,400C485.554,397 484,393.37 484.668,390.286C485,388.092 486.404,386.213 486.776,384C487.432,380.061 486.819,376 487.169,372C487.346,370 488.451,366.394 486.441,365C484.424,363.445 483.373,366.651 483,368.024C482.365,372.813 483,378.151 483,383C480,379.208 479.521,373.607 478.265,369C476.177,361.338 473,354 472,346C474.745,344.331 475.497,343.176 476,340C474.566,341.393 473.955,342.232 473,344L471,344C469,339 466.829,331.3 467,326ZM360,346C358.897,347.457 358.457,348 357,349L353,345C355.672,344.201 357.431,345 360,346ZM353,383C348.862,382.662 344.281,382.025 341.318,378.772C337.818,375 338,369 343,367C343,371.626 342.188,378.726 348,379C346.619,373.199 349,363.736 341,364L346,348C355,350.647 359.699,364.426 357.581,373C356.704,376.55 354.29,379.59 353,383ZM349,375L354,375C353.627,370.318 353,364.617 351.698,360.149C351,358.389 348.767,356.29 347.303,358.623C345.24,362 349,371 349,375ZM535,372L535,375C534.304,373.446 534.304,373.554 535,372ZM501,419C506.188,426.281 505.551,436.666 511.927,444C515.654,448.028 522.5,444.811 523.547,452.005C524,456.095 520.833,459 518.748,462C514.349,468.525 512.685,476.802 508,483C505,475.485 503.447,467.808 501.525,460C500.238,454.768 497.184,449.417 496.644,444.089C496.395,441.633 497.524,439.351 497.91,437C498.856,431.108 498.559,424.438 501,419ZM287,422C287.406,424.093 287.217,424.02 289,425C288.316,423.42 288.195,423.223 287,422ZM191,481C189.426,485.257 186.78,489.274 187.204,494C188.42,507.554 206.986,520.462 219,523.711C247,531.321 272.762,532.577 299,518.13C307.922,513.218 317,507.189 320.59,497C326,480.804 321.901,468.105 316.749,452.714C315.821,450 316.443,447 315.436,444.184C313.575,439.161 306.851,436.767 302,436.184C294.966,435.34 288.65,438.245 282,440C271,442.827 259.911,444.767 249,448C220.239,456.012 191.696,463.637 162,467.17C155.963,468 150,469.664 144,470C136.315,470.335 128.677,471.624 121,472C109.355,472.471 97.653,471.728 86,472.015C80.306,472.154 70.616,473.456 68.662,480.04C66,488.804 79,488 84,488C102.921,488 122.22,489.165 141,486.718C157.651,484.549 174.255,482.322 191,481ZM529,438C528,440.673 527.41,443.226 527,446C525.448,442.682 523,439.39 522,436L529,438ZM203,491C205.944,487.113 205,481.716 205,477C212.566,476.654 219.699,473.324 227,471.475C243,467.394 259.588,462.345 276,459.726C282,458.743 291.891,453.562 297.957,455.643C301.853,457 303.465,461.556 304.949,465C308.643,473.575 311.785,486.811 304.812,494.661C300.887,499.078 295,501.536 290,504.158C269.669,514.536 249.507,515.055 228,507.823C218,504.466 207.677,501.465 203,491ZM526,459C531.351,482.408 533,506.359 537.463,530C538.762,537.14 541.566,544 543,551C549.713,583.045 555.27,615.065 562.804,647C567.824,668.278 572,689.805 577.478,711C580.446,722.525 585.904,733.759 584.826,746C583.553,760.445 578.629,774 575.808,788C566.525,834.406 553.379,880.421 540.615,926C536.239,941.628 532,957.299 527.911,973C525.971,980.399 523.224,988.334 523,996L514,1000C512.379,993.749 510.514,987.454 510,981C514.905,978.078 514.594,973.046 515.924,968C518,959.724 520,951.178 522.659,943C534.73,904 542.967,863.683 552.997,824C555.882,812.586 556.933,800.394 560.317,789.214C561.39,785.668 566.702,785.498 567.369,782.03C567.939,779.065 563.506,779.831 562,780C556,766 555.777,749 553,734L557,734C557.19,725 560.673,716 562.486,707C563.809,700.484 564,693.627 564,687C559.316,689.585 560.719,693.319 559.91,698C558.212,707.824 556.371,717.636 553,727C549.996,720.748 551.498,713.687 550.829,707C549.695,695.655 547.801,684.401 546.911,673C546.623,669.315 545,665.705 545.815,662C548,650.373 556.595,637 554,625C548.284,628.506 549.66,636.042 548.792,642C548.188,646.144 546.272,650.038 545,654C540.791,647.02 542.368,637.791 541,630C539.711,621.713 538.827,613.224 537.192,605C536.32,600.612 533.887,595.527 534.484,591C534.866,588.103 536.956,585.793 537.726,583C539.797,575.489 541,567.605 543,560C534.468,564.81 537.387,575.689 533,583C530.444,574.371 529.904,565 527.761,556C526.275,550 523,543.535 523.302,537.089C523.401,533.347 526,529.746 526.718,526.015C527.782,520.422 534.367,509.295 527,507C526.64,514.023 524.751,522.524 522,529C519.388,524 518.61,518.41 516.911,513C514,504.043 510.792,495.233 509,486C514.181,483.137 515,477.156 517.297,472C519.219,467.489 521.93,463.428 524,459L526,459ZM603,546C607.182,547.635 610.445,549 615,549L611,544C628.413,542.614 645.79,539.198 663,536.324C678.241,533.779 693.732,532.813 709,530.41C718.65,529 728.366,527.808 738,526.246C741.933,525.608 747.96,523.533 751.856,524.773C755.467,526 756.637,532 757.989,535C762.67,545.686 768.619,555.5 773.536,566C776,571.592 779.629,580.245 787.721,575.566C796.296,570.608 786.541,556.539 783.544,551.17C779.359,543.672 774.8,536 771.583,528C765.607,513.185 762.169,497.676 756.342,482.83C753.608,476 753.51,462.191 743,463.208C737,463.779 734.92,469.638 735,475C735.344,482.331 742.749,490.023 745.179,497C746.19,500 748.884,505.555 745.664,507.821C742.622,510 736.607,509.629 733,510.13C723.305,511.478 713.681,513.092 704,514.425C682.316,517.412 660.589,520.815 639,524.435C626,526.608 612,530 599,530C598.74,521.014 595,511.762 593,503C590.41,491.609 589.457,478.682 584.451,468.005C580.38,459.323 568.714,465 568.187,473C567.736,480 573.17,488.205 574.639,495C577,506.623 580.54,518.305 582.535,530C583,533.575 581.831,537.24 582.563,540.7C583.258,544 585.874,546.726 586.83,550.015C588.186,554.677 588.868,560.162 589.265,565C589.52,568.096 589,571.77 591.564,574.106C596,578.26 603.318,575.179 605,570C607.824,562.367 603.333,553.765 603,546ZM362,497C363.647,500.083 363.962,502.519 364,506C361.77,503.276 360.789,500.387 362,497ZM361,514C364.523,526.325 369.678,539.249 374.63,551C376.908,556.404 381.281,561.422 382.837,567C383.875,570.721 381.988,574.25 382,578C382,582.761 384.362,587.285 385,592C381.603,588 380,582.788 377.883,578C371.584,564.36 366.374,548.695 363.246,534C361.883,527.597 358.295,520.449 361,514ZM310,641C304.954,623.485 293.446,605.662 279.91,593.586C274.548,588.802 268.226,584 261,582.479C256.321,581.558 251.62,583 247,583.576C227.273,586.636 200.22,603.268 206.174,627C209.571,640.538 225.487,649.11 237,654.78C240.655,656.58 244,659 248,660.215C261.308,664.533 277.311,663.478 291,662.17C301.323,661.183 312.203,659.51 321,653.351C327.646,648.698 332.54,641.798 336.741,635C340.399,629.08 345.433,622.134 345.946,615C347.595,592 335.589,571 318.17,556.557C311.889,551.382 294.506,542.349 289.298,553.174C287.431,557.055 290,560.115 293,562.521C298.526,567.102 305.453,569.499 310.91,574.262C321,583.093 332.793,598.582 330.783,613C329.812,620 325,626.667 320.66,631.83C317.487,635.493 314.316,638.758 310,641ZM293,645C273.931,650.649 250.737,645.241 234,635.471C228.438,632.225 217.817,623.631 219.916,616.004C220.89,612.463 224.487,609.784 227.285,607.675C234.861,602 251.789,596.531 261,601.024C277,609 288.541,628.326 293,645ZM696,691C680.647,694 664.542,694.019 649,695.09C643.614,695.46 638.421,697 633,697C632,685.175 628.598,674.52 626.376,663C623.896,650.142 622.243,637 620.714,624C620,618.242 622,601 612.286,602.583C601,604.425 604.389,617.554 605.561,625C607.647,638.252 608.676,652 611.453,665C613.237,673.436 616,681.496 617.624,690C618.804,696.558 608.432,704.752 613.604,710.231C617.169,714.007 622.554,712.234 627,712.039C637.76,711.569 648.277,711.551 659,710.285C671.888,708.765 685,709.062 698,707.83C724.817,705.277 752,703 779,703C789,703 798.99,702 809,701.375C812,701.224 815.8,702.72 818.698,701.393C821.418,700.146 822.566,695.731 822.606,693C822.803,679.373 805,684.059 797,684.83C786.322,686 775.701,685.571 765,686.039C755,686.477 745,688 735,688C729.23,688.019 719.384,691.275 714.478,687.397C711,684.739 709.574,680.01 708,676.17C703.933,665.51 703.341,653.145 700.626,642C699.774,638.506 699.739,633.23 697.397,630.394C690.601,622.164 682.949,633 683,640C683.194,644.822 686,650.227 687.258,655C690.172,667 693.251,679 696,691ZM507,651C507.401,654.154 509.438,657.686 508.418,661C506.989,665.27 502,669 499,672.039C493.962,677.12 489.409,683.017 485.475,689C478.593,699.455 477,715.785 478.576,728C479.457,735 481,741 484.67,747C486.258,749.63 488.456,753 491.985,752.418C496.861,751.809 498,744.656 500.675,741.285C506.473,733.563 514,727.235 524,727L524,733C517.347,735.269 510.567,739 506.599,745C503,750.323 501.525,766.135 492,763.062C480.849,759.466 476,741.113 474.846,731C473.352,718.038 472,701.608 476.796,689.17C479.421,682.308 484.686,676.2 488.703,670.09C493.366,663 498.64,654 507,651ZM512,668C512.489,672 514.732,678.145 512.883,681.787C511.419,684.668 507.552,686.025 505.285,688.213C499.213,694.075 493.631,702.512 492.304,711C491.626,715.338 490.793,720.617 491,725C491.195,727 491.686,729.662 494,729.658C498.479,729.651 501.712,723 504.326,720.285C508.749,715.741 513.922,713.407 520,712C520.901,714.411 522.531,718 520.932,720.352C518.596,724 511.525,725.781 508,728.22C500.886,733.142 496.191,739.325 491,746C484.339,738 484.745,729.824 484.985,720C485.205,711.033 484.561,701.463 488.36,693.039C489.985,689.435 492.727,686.283 494.951,683.035C498.756,677.477 505.326,669.828 512,668ZM361,681.44C344.308,684.12 327.843,688.645 311,690.714C296,692.553 280.964,692 266,694.804C259.471,696.032 252,696 247,701.109C244,704.252 242.705,710 246.514,713.142C250,716.24 254.99,714.354 259,713.451C265.18,712.061 271.741,711.331 278,710.285C288.954,708.456 300,709.126 311,707.816C322.727,706.412 334.33,704.161 346,702.429C353.813,701.27 364.865,701.647 371.656,697.166C376.274,694.119 376,686 371.772,682.603C368.855,680.352 364.395,681 361,681.44ZM516,688C516,694.766 517.995,701.18 518,708C508.427,710.269 504.285,716.177 497,722C497,709 501.178,691.524 516,688ZM212,703.747C201.977,707.745 204.431,725.826 215.815,721.102C219.336,719.641 223,714 222.929,710.015C222.71,705.039 216.397,702.046 212,703.747ZM317,813L317,815C308.632,815.07 300.306,817.712 292,819C287.286,819.526 281.325,819.246 277,821.314C272.379,823.524 265.524,833.071 273,836.397C276,837.674 279.975,837 283,836.421C288.995,835.562 295,835 301,834.13C326.713,830.516 351.617,823.735 377,819C386.411,817.115 403.843,816.054 406.397,805C410.185,788.593 387,796.283 379,797.285C356.273,800.076 332.545,799.526 310,795.424C297.448,793.141 284.664,788.649 275.865,779C266,768.356 261.329,752.008 259.829,738.001C259.493,735 258,727.35 253.285,728.748C249.708,729.779 248.388,735 247.541,738C244.72,748.274 247.381,759.556 251.919,769C255.534,776.523 258,784.048 263.559,790.572C275.971,805.394 298,812.61 317,813ZM570,732L565.182,760L561,775C567.763,776.288 566.916,770.009 568.295,765C571.218,754.375 573.969,743.068 574,732L570,732ZM613,753L617,752C614.954,751.249 614.404,751.344 613,753ZM451,775C451.737,778 453.318,781.819 452.311,784.74C451.368,787.474 447.838,789.362 445.849,791.304C442.651,794.426 440.252,798.027 438.22,802C435.265,807.767 431.275,813.685 429.613,820C426.984,830 427.599,842 429.664,852C430.898,858 431.629,865.49 434.569,871C435.776,873.125 438,875.305 440.816,874.404C445.638,872.821 446,865 447.618,861C451.275,851.482 457.328,842.666 468,841C467.89,850.351 460.28,855 456,862.718C452.513,869.064 450.954,876.34 448,883C447,885.51 445.795,889 442.871,890C439,891 436.513,886.781 434.877,884C430.786,877.045 427.517,869 425.597,861C421.955,846.12 421.636,829 426.431,814.285C428,809.032 431.167,804.209 433,799C436.522,789.003 438.626,777 451,775ZM501,780C505.655,782.704 510.819,785 516,786.371C518.934,787.225 522.231,787.196 523.972,790.148C525.677,793.038 524.76,797 524.245,800C523,807.458 520.679,814.668 518.898,822C512.244,849.399 507.574,877.12 499,904C494.198,902.068 495.239,898.399 496.424,894C498,887.824 499.827,881.429 499.985,875C500.422,857.214 502.521,838.766 500.83,821C499.972,812 500,803.07 500,794C500,789.464 499.231,784.215 501,780ZM556,789C551,807.698 549.347,827.159 544.561,846C541,860 538.317,874.169 534.451,888C530.761,901.029 525.891,914 522.451,927.17C519.878,937.076 516.651,947 514.51,957C513.289,962.708 513.223,969.458 508,973C505.774,955.481 497.684,937 500.209,919C501.947,906.64 506.195,894.071 509.299,882C513.46,865.821 515.831,849.189 520,833C523.781,818.495 528.99,804.114 529,789C538.238,789.729 546.756,790.168 556,789ZM455,791C456,794.305 457.49,798.397 456.552,802C455.571,805.581 451.788,808.199 449.442,811.004C445.466,815.757 441.247,821.826 440,828C438.947,833.619 436.697,843.829 445.961,841C446.942,840.659 447.882,840.078 448.674,839.436C454.451,834.757 455.797,827.369 463,824C463.359,827 465.365,831 464.343,833.787C462.916,837.817 456,840.103 453,843.093C447.285,849 442.407,857.83 441,866C436.444,861.285 436.342,854.218 435.421,848C433,832.715 434.728,821 441.525,807C444.854,800.198 447.53,794 455,791ZM459,809C459.708,811.678 461.339,815.041 460.353,817.817C459.283,820.83 455.657,822.601 453.529,824.808C450.615,827.829 448.425,831.59 446,835C442,825.652 450.716,813 459,809ZM295,948C295,954.642 294,967 297.434,972.736C299.662,976.664 306.838,978.601 309.86,974.566C315.196,967.443 309.989,954.82 309,947C332.724,946 355.464,939.447 379,937.17C387.646,936.333 396.389,934.721 405,934.09C409.176,933.784 414.882,935.151 418.772,933.397C423.869,931.097 421.633,922.426 418.57,919.318C412.36,913.016 397.502,918.448 390,919C361.902,921 334.263,930 306,930C304.362,909.25 298.585,889.559 291.787,870C290.188,865.399 285.696,847.002 277.97,857.149C271.189,866.055 277,875.197 279.78,884C281,888.471 281,893.227 282.416,897.715C285.709,909 289.723,920.165 290,932C259.249,932 228.655,934.448 198,931.166C181,929.357 164.213,926.112 150,916.385C136.335,907.033 118.782,892.186 119,874C119.268,857.04 139.354,856.022 148.786,846.675C153,842.392 153.951,836.796 154,831C129.391,831.068 98.236,856.066 103.34,883C106.82,901.363 121.32,916.666 136,927.128C163,946.446 193.648,949 226,949C234.364,949.013 242.589,950.191 251,950C265.622,949.627 280.371,948.04 295,948ZM452,997C454.274,997.409 455.781,996.788 458,996C455.538,995.303 454.335,996 452,997Z" style="fill-rule:nonzero;"/>
        </g>
    </g>
</svg>
