<?xml version="1.0" encoding="UTF-8" standalone="no"?>
<!DOCTYPE svg PUBLIC "-//W3C//DTD SVG 1.1//EN" "http://www.w3.org/Graphics/SVG/1.1/DTD/svg11.dtd">
<svg width="100%" height="100%" viewBox="0 0 2164 1488" version="1.1" xmlns="http://www.w3.org/2000/svg" xmlns:xlink="http://www.w3.org/1999/xlink" xml:space="preserve" style="fill-rule:evenodd;clip-rule:evenodd;stroke-linejoin:round;stroke-miterlimit:1.41421;">
    <g>
        <path d="M1126,1007C1124.27,1016.27 1123.93,1025.76 1122.2,1035C1120.25,1045.33 1116.81,1055.47 1116,1066C1114.45,1090 1118,1114.19 1115.83,1138C1114.56,1151.09 1111.42,1164 1110.17,1177C1107.44,1205.68 1105.31,1235.16 1106,1264C1106.22,1272.34 1107.78,1280.66 1107.99,1289C1108.66,1316.36 1107.99,1343.79 1111.29,1371C1113.2,1386.77 1117.85,1401.78 1122,1417C1124.55,1411 1121.32,1404.04 1119.88,1398C1116.85,1385.22 1114.42,1372.07 1113.17,1359C1111,1337.44 1111.52,1315.65 1110.99,1294C1110.38,1269.39 1109.41,1244.69 1110,1220C1110.77,1189.15 1116.91,1158.65 1119.83,1128C1121.78,1107.53 1117.64,1086.62 1119,1066C1120.51,1045.8 1127,1026.07 1129.71,1006C1130.5,999.822 1128.31,994.107 1128,988C1127.55,977 1128.38,965 1130.66,954C1137.28,922.429 1159.75,897 1165.38,865C1168,850 1161.23,835 1164,820C1155.73,828.722 1163,846.193 1163,857C1160.85,851.263 1161,844.344 1157.91,839.044C1156.66,837 1154,834.143 1151.32,834.832C1147.75,835.726 1149,843.364 1149,846C1149,851.335 1149.37,856.775 1148,862C1146.34,869.268 1142.4,876 1140,883C1136.79,882.312 1134,882.096 1131.17,884.01C1127.93,886.161 1125.96,890 1123.81,893C1118.78,900.356 1112.53,908.384 1110,917L1108,917L1100,901C1096.52,903.119 1094.67,905.29 1093,909L1089,907C1085.63,914.198 1083.45,921.222 1082,929L1074,927C1071.43,933.621 1068.54,943.01 1061.91,946.682C1056,950 1048.2,947.166 1042,947.015C1025.85,946.619 1008.78,948.808 993,944.576C984.552,942.309 975.644,941.824 967,940.572C957.294,939.166 947.595,936.83 938,934.789C919.967,931 902,926.472 884,922.801C860.663,918.059 837,914.174 814,908.116C802.992,905.221 792.859,900.215 782,897.043C776.836,895.535 771.278,895.739 766,894.576C755.205,892.196 744.629,889 734,886C724.588,883.192 714.739,880.567 708,873C730.996,882.704 742.325,855.23 755.289,842.289C760.293,837.295 767.608,832.628 775,833.225C782.897,834 788.367,840.696 795,844.177C808.475,851.249 821,861.124 835,867.127C850.446,873.762 870.616,874 886,866.676C896,862 899.537,852.7 897.532,842C895.92,833.395 890.834,826 887.312,818C884.44,811.576 882.199,803 881.21,796C880.358,790.011 882.263,784 882.83,778C883.366,772.396 883,766.625 883,761C883,746 883.312,728.201 870.985,717.188C868.63,715.085 865.956,713.396 863,712.272C840.244,703.617 830,729.588 816,740.61C806.984,747.676 792,749.28 781,747.7C767.794,745.813 755.924,738.589 747.9,728C742.187,720.461 738.465,709 729,705.148C719.209,701.33 711.568,711.342 702,711C689.777,710.233 685.405,691.47 672,695.653C659.177,699.653 664.323,711.392 659.273,720C657.693,722.693 655,724.818 654.523,728C653.935,731 655,734.143 655.576,737C656.778,743.671 658,750.322 659.25,757C662.676,776.675 667.958,797 673.72,816C676.635,825.677 680.725,835.166 683,845C674.634,839.465 668.672,836.066 659,840C655.864,833.41 651.653,828 644,831C640.946,824.59 633,820.314 632,830C629.844,828.084 627.861,826.208 624.998,825.432C621.948,824.605 618.853,825.29 616,823.397C613,821.368 611.699,818 608.816,815.728C605.554,813.341 601.312,813.033 598,810.585C594.607,808.077 591.393,803.677 587,803C582.516,802.003 581.38,806.601 581,810C578.326,807.465 575.631,804.751 572,803.657C566.565,802.019 561.606,803.28 556,801C554.778,803.301 553.841,805.533 553,808C547.216,802.216 540.895,797 535.286,791C531.717,787.142 528,781.356 523,779.619C517.59,777.792 513.435,783.644 508,781.728C499.91,779 495.464,771 486,773C484.619,769 483,764.244 479.788,761.319C476.267,758.214 472.63,759.362 472,764.019C470.884,775 476.689,786.825 480,797C475.241,793.015 473.697,786.604 468.815,783C464.722,780 459.444,778.482 455,776C432.534,763.432 408.271,755.267 384,747C341,732.364 299,717 255,705.63C240.86,702.011 226.36,700.676 212,698.439C204,697.198 197.641,697.118 190,694C196.899,689.774 204.269,690.345 212,691C224.736,692 237.305,694.455 250,696C272.615,698.292 295.261,704 318,705C337.468,705.813 357.178,702.601 376,698C387.779,695 404,692 413.907,684.362C420.605,679.16 422.624,668.76 424.859,661C429.763,644 434.765,627 440,610C452.866,568.681 475,530.75 502,497C512.872,483.349 524.421,471 537,459C546,450.278 554.401,442.199 567,439.236C581,436 598.665,434.805 613,436.17C628.982,437.691 647.269,441.056 662,432.662C680.236,422.271 680.645,398.424 692.529,383C703.37,369 720.433,356 735,345.774C740,342.241 745.994,340 750.985,336.214C755,333.183 755.628,328 759.314,325.089C763.317,322.082 770.27,321.243 775,319.667C789.519,314.827 804,311.783 819,308.8C845.959,303.432 871.413,293.795 899,291.17C909,290.208 918.98,292.224 929,293C936.278,293.409 943.706,293 951,293C944.237,290 935.32,290.67 928,289.718C918,288.427 908,287.401 898,288.089C872,290 847.243,299 822,304.576C813.37,306.492 804.615,307.522 796,309.5C767.312,316.085 737.913,326 711,338C687.644,348.188 666,362.519 644,375.15C622.743,387.284 600.404,398.607 581,413.665C570.458,422 561.855,432 552,440.83C526.175,464.197 501.293,487 481.67,516C469.299,534.351 458,553.635 449.427,574C441.916,591.553 437,610.134 430.424,628C426.762,637.797 424.26,648 421.629,658C419.965,664.389 418.716,671.701 414.468,677C408.197,684.714 393.257,688.562 384,691.645C363.522,698.466 339.573,702.388 318,701C305.905,700.082 293.967,697.025 282,695.3C267.378,693.193 252.608,692.317 238,690C225.517,688 212.657,686 200,686C195.547,686.007 188.625,685.654 186,690.225C182.807,696 190.282,700.144 194,702.77C205.784,711.094 216.416,720.505 229,727.72C240.55,734.343 251.282,742.339 263,748.691C281.27,758.596 300.243,767 318,777.811C342,792.547 364.731,809.614 390,822.247C400,827.294 410.536,831.263 421,835.449C428.508,838.452 435.974,842.091 444,843.535C453.844,845.307 464.305,842.277 474,845.04C485.806,848.405 496.595,854.757 508,859.189C527,866.598 546.681,872.637 566,879.344C587.823,887 609,896.167 631,903.33C655.269,911.24 680.493,916.264 705,923.424C754.429,938 803.921,949.804 854,961.654C875,966.633 895.699,972.549 917,976.54C932.861,979.512 948.996,982.724 965,984.715C989.605,987.777 1014.45,989 1039,992.289C1050.21,993.803 1060.86,998.515 1072,1000.54C1089.59,1003.73 1108.21,1005.59 1126,1007ZM957,291C963.757,294 972.746,291.418 980,292.286C999.689,294.64 1019.29,297.056 1039,299.166C1084.59,304.047 1129,314.498 1173,327.72C1214.8,340.309 1255.55,356.059 1296,372.396C1310.59,378.288 1325.56,383.144 1340,389.424C1356.92,396.786 1373,405.677 1390,413.138C1405,419.81 1420.83,425 1436,431.427C1473.55,447.449 1510.65,464.64 1548,481.14C1569.44,490.612 1591.6,498.331 1613,508C1627.95,514.519 1642.27,522.613 1657,529.742C1665.92,534.059 1675.28,537.592 1684,542.309C1698.58,550.189 1711.96,560 1726,568.575C1743.56,579.508 1762.26,587.551 1778,601.286C1789.6,611.403 1800.85,622.005 1810.54,634C1816.74,641.667 1821.87,650.183 1827.89,658C1837.25,670.16 1847.64,681.5 1856.57,694C1866.53,708 1875,722.805 1884.67,737C1899.61,759.167 1918.45,779.189 1930.74,803C1938.24,817.518 1941.55,833.241 1948.31,848C1955.84,864.432 1968,878.7 1977.58,894C1984.47,905.067 1988,916 1992.44,928C1995,935.04 1998.3,941.659 2000,949C1992.22,944.384 1983.83,945.413 1975,946.73C1972.23,947.142 1967.41,947.485 1966.92,951.105C1966.52,954.085 1969.77,956.341 1972,957.583C1977.54,960.662 1984.78,961.508 1991,962L1992,970C1984.95,970.367 1981.31,973.406 1979,980C1983.67,980.493 1988,978.054 1993,978C1991.92,981.657 1992,985.199 1992,989C1988.44,989.076 1985.27,989.452 1982,991C1978.8,992.486 1975.76,995 1972,994.246C1967.31,993.306 1959.85,989.072 1956.52,985.66C1953.88,983 1952.37,979 1948.91,977.032C1944.78,975 1942.48,978.313 1938.91,979.567C1930.68,982.456 1918.51,981 1915,991C1906.63,986.611 1896.47,986.815 1893,997C1887,995.628 1877.9,996.815 1873.3,1001.23C1869.47,1005 1867.3,1010.01 1863.82,1014C1857.55,1021.15 1850,1027.04 1843,1033.29C1838.45,1037.28 1834.28,1041.79 1829,1045C1823.49,1048.08 1817,1046.67 1811,1047.09C1796.69,1048.07 1781.73,1051.75 1768,1045.48C1760.77,1042.18 1756,1035.29 1749,1032L1749,1030C1758.2,1024.58 1737.41,1015.25 1747,1009.14C1749.73,1007.48 1753,1007.35 1756,1006.4C1766.59,1003 1777.73,1002.02 1789,1002.08C1795.82,1002.11 1800.26,1005 1807,1002C1803.39,1000 1799,999.786 1795,999C1780,996.136 1762.89,999.723 1749,993C1760.36,988.616 1771,988.03 1783,986.829C1793,985.82 1802.86,983.784 1813,983.09C1823.33,982.382 1833.7,983.168 1844,981.7C1872.58,977.624 1898.92,958.204 1921,940.789C1930.85,933.019 1941.54,923.497 1947,912C1937.26,917.628 1930.37,927.343 1922,934.714C1904.54,950.088 1884.74,964.802 1863,973.547C1842.91,981.63 1820.85,977.443 1800,980.428C1788.97,982.008 1778,983.706 1767,985.159C1762,985.804 1756.99,988.107 1752,987.582C1748.5,987.213 1745.22,985.319 1742,984C1748,978.459 1754.99,976.504 1762,972.575C1779.47,962.788 1797.25,953.556 1816,946.424C1823.85,943.438 1842,939.302 1843.42,929.059C1843.97,924.83 1838.89,925 1836,925.185C1828.8,926.011 1821.66,929.735 1815,932.4C1795.56,940.177 1775.64,946.613 1757,956.258C1747,961.354 1738.79,968.789 1729,974C1737.92,965.789 1747,957.463 1758,952.11C1775.23,943.722 1795.33,939.561 1807,923C1800,925.649 1794.54,931.118 1788,934.688C1777.29,940.537 1765.36,944.595 1754,949C1774.28,928.735 1799.58,914.127 1818,892C1823.55,885.458 1833.64,877.025 1834.6,868.004C1835.35,861 1820.44,856 1815,858.006C1810.33,859.807 1806,863.571 1802,866.333C1790.91,873.733 1778.8,882.233 1772,894C1754.21,879.654 1733.51,900.123 1717,907C1719,900.531 1720.89,893 1726,888.228C1730.31,884.395 1735.94,884.477 1741,882.533C1748.56,879.633 1755.77,875.371 1763,871.753C1778.96,863.771 1795.23,856.203 1812,850.053C1818.44,847.691 1825.82,847.362 1832,844.587C1839.82,841.079 1846.4,835.19 1854,831.258C1867.72,824.163 1885.52,816.832 1901,815.174C1906.75,814.558 1912.31,815.551 1918,816C1908.78,804.665 1886,814 1875,818.203C1871.51,819.574 1866,823.037 1862.33,822.611C1858,822.145 1853.78,814.718 1850,812.483C1845.9,810.057 1841.25,810.273 1837,808.352C1828.97,804.726 1822.23,798.78 1814,795.453C1789.88,785.706 1765.6,793.454 1747,810.171C1738.86,817.489 1732.59,827.427 1724,834L1726,828C1718.61,835.163 1716.97,846.271 1712,855C1709.69,845.425 1710,835.776 1710,826C1705.23,829.632 1707,838.561 1707,844C1694.87,832 1678.29,819.035 1660,822.329C1654.7,823.284 1651,827.376 1646,829C1639.93,830.715 1632.63,828.575 1627,832.089C1623.78,834.204 1622.66,838.258 1620,841C1620,816 1621.38,791.777 1626,767C1619.25,775.371 1619.97,788.821 1618.72,799C1617.18,811.518 1618,824.394 1618,837C1617.91,855 1617.56,872.067 1619,890C1619.48,894.544 1621.55,898.586 1622.48,903C1624.36,912 1624.74,925.806 1619,933C1618.72,919.292 1606.46,909.773 1605,896C1602.96,874.149 1604,852 1604.96,830C1605.72,812.649 1605.19,795.278 1607.29,778C1608.31,769.533 1610.77,761.385 1612,753C1605.9,759.308 1605.83,769.739 1604.85,778C1602.3,799.272 1601,820.574 1601,842C1595.74,842.171 1593,843.68 1592,849C1591,848.244 1590,847.258 1588.84,846.7C1580,842.505 1579.48,851.041 1572.96,853.687C1567.47,856 1560.62,855 1555,858.023C1552,859.773 1550.9,863.509 1547.9,865.292C1545.25,867 1542.81,865.226 1540,865.642C1535.92,866.264 1534.83,870.567 1534,874C1524.79,872 1519.48,877.773 1512,882.046C1506.67,885.09 1500.21,883.242 1495.29,886.028C1490,889 1487.33,895.05 1482.74,898.582C1479,901.443 1474.18,897.324 1470.7,900.604C1466.82,904.267 1466.63,913.021 1466,918C1464.35,916.123 1462.76,914.016 1460.83,912.414C1457.95,910.04 1454.45,909.373 1451,908.255C1444,906.012 1436.47,902.036 1432,910C1428.37,908.469 1419.29,905.487 1415.7,908.042C1413.46,909.642 1412.8,913.54 1412,916C1407,913.783 1404.22,915.034 1400,918C1399,911 1395.19,900.527 1386,904.008C1383.68,905 1381.89,906.453 1380,908C1379.87,902.554 1378.75,899.656 1373,899C1375.67,890.803 1378.63,882.696 1379,874C1374.71,879.31 1373.27,886.715 1370.8,893C1367,902.45 1362.68,910.285 1356,918C1355.47,892.21 1337.28,869.696 1314,860C1318.18,867.234 1324.84,871 1331,876.3C1341.84,885.71 1357.54,906.433 1352.3,922C1350.64,927 1346.47,931.041 1343.26,935C1338.26,941.169 1332.61,948 1329,955C1325,941.785 1330.95,928 1324.17,915C1315.38,898.28 1290,894 1273,895.089C1267.4,895.482 1257.53,896.296 1254,901C1261.35,901 1269.8,897.466 1277,899.434C1281.89,900.768 1284.93,905.433 1289,908.147C1292.98,910.8 1297.8,911.591 1302,913.825C1310.55,918.381 1312.59,931.441 1324,929C1329.28,957.424 1313.48,983.735 1316.17,1012C1318.26,1034 1322.99,1055.35 1326.75,1077C1329.17,1091 1330.26,1105.02 1332.42,1119C1337,1148.62 1342.86,1178.06 1344.91,1208C1345.62,1218.4 1344,1228.64 1344,1239C1340.33,1237 1337.25,1235.38 1333,1235C1333,1221 1333.99,1206.77 1330.99,1193C1329.21,1185 1324,1178.44 1323.17,1170C1321.91,1157.45 1323.51,1144.59 1322.96,1132C1322.45,1120.33 1320.22,1108.41 1317.79,1097C1316.78,1092.27 1315.72,1087.41 1313.68,1083C1311.61,1078.56 1308.31,1074.75 1306.94,1070C1305.66,1065.55 1307.22,1058 1303.3,1054.66C1300.42,1052.24 1298.21,1056 1297,1058L1295,1058C1290.74,1050.41 1285.78,1055.02 1285.19,1062C1284.68,1068 1286.7,1074.05 1286.96,1080C1287.62,1095.08 1287.33,1110 1289.28,1125C1290.79,1136.54 1293.9,1149.72 1289.9,1161C1286.82,1169.67 1279.67,1173.61 1273.65,1179.65C1271.79,1181.51 1270.77,1184.05 1269,1186C1268.99,1181.53 1269,1176.12 1266.7,1172.15C1265.33,1170 1262.75,1168.73 1260.51,1170.62C1256.57,1174 1256.61,1184.17 1256,1189C1253.19,1189.18 1251.48,1189.66 1249,1191C1244.88,1184.38 1240.94,1191 1239.93,1196C1237.72,1207.36 1237,1220.43 1237,1232L1235,1232C1235,1220.59 1231.88,1210.23 1231,1199C1230.21,1186.44 1231,1173.59 1231,1161C1230.95,1151.68 1230,1142.38 1230,1133C1230,1126.1 1231.29,1117.65 1229.2,1111C1228,1107.73 1225.83,1104.27 1222,1104.38C1212.72,1104.63 1212.86,1119.55 1212,1126C1210.84,1138.41 1209.6,1150.72 1207.39,1163C1205.18,1175.23 1201.96,1187.58 1201,1200C1198,1243.6 1197.79,1287.23 1198,1331C1198,1341.48 1199.32,1352.69 1201.26,1363C1202,1367.13 1203,1372.6 1207.19,1374.81C1211,1377 1213.97,1374 1217.71,1373.61C1221.95,1373.31 1225.29,1378.25 1229.77,1375.78C1233.88,1373.51 1232,1368.64 1233.6,1365.06C1235.61,1360.04 1241.45,1360.04 1246,1360C1243.49,1363.52 1242.45,1366.16 1247,1368C1245.33,1371 1243,1374.46 1243.5,1378C1243.79,1381 1245.96,1383.07 1246,1386C1246,1392.39 1241.81,1401.27 1237.79,1406C1230.79,1414.22 1221,1419.33 1212,1424.8C1206.29,1428.22 1200.6,1432.27 1194,1433.71C1182.85,1436.15 1171.23,1434.5 1160,1436.62C1154.95,1437.57 1148.74,1439.38 1144,1441.31C1141,1442.47 1138.32,1445.6 1135,1444.12C1127.98,1441 1126.37,1427.65 1125,1421C1123.24,1425.32 1125.35,1429.55 1125.83,1434C1126.23,1437.74 1125.67,1441.51 1127.46,1445C1131,1452.09 1140.63,1455.72 1148,1457.19C1166.76,1461 1188.34,1456.69 1207,1454C1213.39,1453 1219,1450.2 1225,1447.8C1242,1441 1257.49,1431.17 1272,1419.79C1278.76,1414.49 1286,1409.55 1291.7,1403C1300.54,1392.72 1305.43,1379.69 1313.76,1369.04C1318.22,1363.34 1324.77,1360 1329,1354C1326.57,1354.05 1325,1353.61 1325,1356L1321,1352C1324.4,1347.6 1327.82,1342.65 1328,1337C1335.76,1341.53 1344,1345.42 1353,1346.7C1360.19,1347.73 1367,1346 1374,1344.42C1387.37,1341.47 1399.93,1337.24 1412,1330.69C1420.6,1326.03 1428.36,1320 1437,1315.32C1442.42,1312.44 1448.43,1312.04 1454,1309.66C1464.37,1305.24 1474.26,1299.23 1484,1293.58C1537.55,1262.49 1586.58,1216.27 1606.64,1156C1611.46,1141.53 1612.65,1126 1615.46,1111C1617.25,1101.51 1620.57,1092.39 1622.77,1083C1624.39,1076.04 1624.85,1069.01 1626,1062C1627.47,1054.13 1630,1045.38 1633,1038C1634.38,1035.02 1636.67,1031.58 1640,1030.71C1647.21,1029 1652.51,1041 1657,1044.61C1660.56,1047.5 1665,1049.35 1669,1051.58C1680.36,1058 1692.5,1063.51 1705,1067.28C1719.74,1071.72 1734.75,1076.32 1750,1078.57C1765.6,1081 1781.41,1081 1797,1083.3C1817.87,1086.52 1837.89,1094.72 1859,1096.83C1874.45,1098.37 1889.66,1095.39 1905,1095.02C1925,1094.52 1943.86,1091.57 1963,1085.33C1969.86,1083.1 1978.35,1081.48 1983.91,1076.66C2010,1054 2008,1014.29 2008,983C2008,977.391 2008.43,971.571 2007.71,966C2006,953.476 2001,942 1997.34,930C1994,920 1991.74,910.321 1986.69,901C1976.62,882.426 1963.21,866.096 1952.45,848C1946.6,838.157 1944.2,826.676 1940.31,816C1937,807.098 1932.23,798.243 1927.58,790C1914,766.131 1894.37,746.215 1879.7,723C1876.43,717.827 1874.43,712.084 1870.97,707C1859.58,690.26 1846,675.172 1833.89,659C1816,635.29 1799.19,613.124 1776,594.261C1769.41,589 1762.47,583.412 1755,579.312C1747,575 1738.61,572.138 1731,567.305C1719.94,560.277 1709.46,552.254 1698,546C1685,538.65 1671.3,533.176 1658,526.742C1642.25,519.122 1626.9,510.609 1611,503.309C1596.29,496.556 1580.9,491.826 1566,485.576C1534.48,472.351 1503.36,458.177 1472,444.577C1391.79,409.782 1312.43,372.031 1230,342.692C1207,334.509 1183.45,328.264 1160,321.579C1140.44,316.003 1120.93,309.776 1101,305.666C1085.31,302.43 1068.87,301 1053,298.573C1030.48,295.24 1007.77,291.036 985,290.039C975.611,289.628 966.375,291 957,291ZM899,295.425C881.353,297.827 863.448,301.393 847,308.427C836.519,313 826.999,319.282 817,324.691C801.36,333.152 785.715,341.279 772,352.754C769.592,354.768 767.248,356.821 765,359.015C756.499,367.308 738.505,386 750.558,398.606C758.798,407.228 774,401.12 784,400.17C798.437,398.79 812.651,401.825 827,402C835.749,402.1 846.886,400.079 855,404C862.652,407.542 869.252,416 871.391,424C874.729,436.728 871.682,450.823 887,456.301C889.277,457.114 891.586,457.713 894,458C898.499,458.27 903.517,458.359 908,457.817C920.573,456.291 937.21,444 943.201,433C950.284,420.102 952.874,404.65 964,394.174C972.68,386.067 984.308,378 995,372.781C1006.97,367.111 1021.67,362.691 1028,350C1030.97,344.507 1032.34,336.754 1029.55,331C1027.88,327.581 1024.79,325 1024.27,321C1023.41,314.483 1030,306.557 1021.95,302.179C1018,300.119 1012.93,301.048 1009,302.209C1000.92,304.595 993.582,308.309 985,309C973.184,309.739 961.393,308.824 950,305.573C933.405,301 916.681,293.019 899,295.425ZM1155,348.428C1145.91,349.731 1136.81,352.45 1130.18,359.174C1126.34,363.071 1123.75,368.014 1119.96,372C1114.47,377.767 1107.33,383.137 1108.2,392C1109.48,405 1123.58,415 1134,420.688C1142.82,425.533 1152.23,427.241 1162,429.095C1169,430.444 1175.68,432.162 1183,432C1195,431.695 1206.87,429.01 1219,430.17C1244.67,432.623 1272,444.262 1298,437.521C1316.28,432.754 1313,410.692 1299,402.529C1290.19,397.429 1279.72,396.307 1271,391C1259,383.593 1248.97,373.686 1237,366.45C1212.97,352 1183,344.402 1155,348.428ZM755,455.428C740.62,457.488 727.352,462.637 714,468.139C708.579,470.373 702.681,471.641 698,475.39C690.747,481.23 687.617,490.246 682.985,498C680.208,502.648 675.993,506.274 673.417,511C671.54,514.444 670.965,518.38 669.536,522C667.631,526.823 664.626,531.031 663,536C660.321,544.426 659.48,553.376 657.576,562C653.719,579.461 651,597.686 657,615C658.721,620.089 660.5,626 664.329,629.786C674.748,640.494 693.367,632.332 704,626.189C710.597,622.378 718.715,617.665 725.96,622.703C734.207,628.438 735.73,640.354 739.427,649C747,667.029 763.419,680.666 784,677.7C797.174,675.801 810.523,667.37 816,655C819,648.473 819.22,641 820.296,634C823,616.431 823.996,598.488 827.261,581C829.781,567.499 833.583,553.504 839.309,541C843.575,531.683 849.644,522.73 852.895,513C855.402,505.497 854.809,494 847.895,489C833.492,478.555 814,488.619 799,479.521C788.388,473.12 782,459.814 770,456C765.42,454.356 759.706,454.754 755,455.428ZM1395,460.61C1387,462.646 1379.8,467.364 1374,473.015C1368.82,478.061 1363,483.321 1359.92,490C1355.72,499.079 1356.35,511.347 1357.73,521C1361.85,550 1382,574 1384.83,603C1385.58,610.725 1383.7,618.281 1384,626C1384.48,636.071 1387,646 1387.91,656C1388.79,666.813 1389.62,680 1398,687.786C1403.24,692.563 1410.35,693 1417,693C1427.47,693.017 1437.75,692.77 1448,690.346C1460.54,687.379 1473.5,681.764 1481.21,671C1492.91,654.669 1492,632.024 1506,617.004C1524,597.694 1554,593.673 1573.99,576.674C1584.29,568 1586.63,554 1580,542C1574,531.087 1563.26,525.701 1552,521.692C1528.96,513.493 1501.44,516 1480,503.826C1468.44,497.305 1465.6,486 1456.89,477.104C1452.76,473 1447.31,470.537 1442,468.284C1428.3,462.474 1409.96,456.78 1395,460.61ZM1165,482C1152,485.627 1142.83,478.735 1131,474.319C1119.21,470 1106.76,464 1094,463.209C1081.28,462.536 1066,469.69 1057,478.093C1052.21,482.486 1048,487.512 1043,491.674C1032.84,500.137 1020,507.27 1008,512.688C1003.47,514.73 998.522,515.535 994,517.529C987.751,520.283 982,524.678 976,527.753C967,532.242 957.947,537 951.681,545.001C940,560.057 946.331,579.32 950,596C951.383,601.607 952,607.365 953.211,613C955.519,624 960.649,633.414 963.334,644C965.414,652.201 964.852,661.002 970.532,668C974.857,673.168 981.446,676.03 987,679.742C993.466,684.064 1000.2,686.699 1007,690.323C1012.36,693.182 1016.98,697.171 1023,698.66C1040.46,703 1059.48,697.633 1077,696.174C1086,695.419 1094.92,699.716 1104,697.214C1115,694.165 1125.17,687.128 1135,681.424C1151.53,671.83 1167.7,663.24 1187,661.166C1194.54,660.356 1202.63,660.013 1210,658.251C1221.58,655.481 1232.33,650 1244,647.514C1256.44,645 1269.94,647.167 1282,642.532C1291,639.067 1301,629.112 1301.89,619C1303,604.44 1283.7,595.427 1275.29,586C1268,578 1261.22,569.675 1256.37,560C1248.85,545 1245,527.712 1235,514C1229.89,507 1222.27,501.177 1215,496.356C1204.97,489.7 1193.74,487.676 1182,486.286C1175.94,485.568 1168.63,488 1165,482ZM567,518.464C544.859,522.376 524.743,537.626 512.357,556C507.55,563.133 503,571.3 502.174,580C500.995,591 502.498,602.158 504,613C504.78,618.631 506.601,624.277 505.675,630C502.531,649.425 486.263,664.255 484.174,684C482.843,696.577 488.851,715.117 503,717.671C510.491,719.023 517.603,715.575 525,716.188C530,716.615 534.91,719 540,719.7C547.592,720.794 555.532,719.823 563,718.388C568.181,717.392 573.326,715.65 578,713.176C597.456,703 598.845,676.752 593.279,658C590.294,648 585,638.43 583.325,628C581.592,617.421 581.896,606.591 583.289,596C584.621,586 588.575,577 593.255,568C598.205,558.534 604,548.125 601.471,537C597.939,521.697 581,516 567,518.464ZM1692,590.443C1681,592.02 1670.84,596.621 1660,598.536C1655,599.417 1650,599.148 1645,600.211C1636.24,602.073 1627.77,605.177 1619,607C1602,610.524 1583.38,614.437 1569,624.789C1551.32,637.514 1548,671 1569,682.442C1579.58,688.236 1595,684.539 1606,682C1623.69,677.575 1641.8,673.438 1660,677.514C1672.38,680.287 1682.82,688.056 1694,693.63C1708.29,700.756 1729.21,705.785 1745,702.55C1761.25,699.222 1762.39,683.735 1757.91,670C1753.73,657.216 1743.43,648 1736,637C1724.64,620.292 1719.41,586.488 1692,590.443ZM241,706C253.498,708.424 265.627,712.183 278,715.116C288.689,717.649 299,719 309,724C302.92,726.552 295,724 289,722.37C282.227,720.635 275.739,718 269,716.152C259,713.44 249.215,711.709 240,707L241,706ZM1418,732.424C1413.71,733 1407.23,732.611 1403.52,735.024C1398.99,738 1395,745.289 1392.76,750C1384.43,766.508 1382.56,788.627 1392.48,805C1395,809.421 1399.18,812.277 1402.54,816.089C1406.7,820.826 1409.67,826.406 1414,831C1418.87,836.072 1424.34,840.527 1427.33,847C1432.27,857.681 1436,869.069 1440.4,880C1444.48,890.195 1449.69,898.575 1462,897.04C1481.33,894.63 1491,876 1503.29,863.089C1518.44,847 1539.18,836.631 1540.91,812C1541.2,808 1541.55,803 1540.35,799C1536.92,787.62 1524,782.645 1516.3,774.714C1509.99,768.22 1506.18,760.375 1499,754.464C1484.46,742.493 1469,738.293 1451,734.803C1440.28,732.734 1428.91,731 1418,732.424ZM1102,855L1105,856C1096.74,841 1105.93,824 1109.84,809C1113,796.724 1111.99,784.123 1108.57,772C1106.5,764.671 1104,755.39 1096.99,751.417C1092,748.657 1086.46,749 1081,749.001C1065.88,749.074 1051,753.33 1037,758.309C1032.27,760 1027,762.013 1022,762C1014.5,761.661 1007.52,758.288 1000,761.144C992,764.164 986.272,772 980.845,778C965.954,795 940.422,821.55 951,846C958.53,863 979.562,857.078 994,858.089C999.896,858.503 1005.73,860.329 1011,863C1020,867.49 1024.91,875.359 1031,883C1038,892 1046.86,901.538 1057,907.096C1072.29,915.473 1093.52,910.049 1100.52,893C1105,882 1103.93,866.392 1102,855ZM1285,800C1253.34,789.698 1219.34,787.283 1188,800.424C1179,804.134 1166.86,807.065 1162,816C1180.87,811.631 1195.3,798 1215,795.289C1261.84,789 1304.42,809.806 1339,840.286C1349.81,849.813 1357.42,863.476 1369,872C1368,868.371 1366.84,865.241 1365,862C1372.22,857.306 1367.71,848.16 1364.74,842C1357.75,827.518 1353,806.707 1337,800L1336,804C1330.64,800.229 1324.62,800.042 1319,797.082C1313.54,794.206 1308.53,789 1302,788.514C1298.49,788.335 1295.45,790.441 1292,790.701C1287.36,791.05 1277,788.413 1282.28,797C1282.97,798 1284,799.06 1285,800ZM1785,832C1782,839.34 1776.55,842.227 1769,840C1773,834.531 1778.34,832.545 1785,832ZM1839,853L1855,859C1838.22,875.777 1821.64,894.124 1810,915C1825.95,907.411 1831.4,889.604 1842.46,877.089C1847,871.775 1855.66,868 1858.28,861.015C1859.61,857.504 1856.75,855.721 1854,854.274C1848.8,851.551 1844.39,850.423 1839,853ZM1107,863C1107.55,864.635 1107.37,864.455 1109,865L1109,863L1107,863ZM1958,912C1949.24,919.658 1942.81,928.608 1934.83,937C1930,942 1924.44,944.776 1923,952C1933,945 1942.53,934.226 1950.83,925C1953.92,921.564 1958.8,917 1958,912ZM1256,1015L1256,1017L1258,1017L1258,1015L1256,1015ZM1347,1254C1344.24,1242.39 1348.45,1230.7 1347.96,1219C1347,1198.66 1344,1178.25 1341.83,1158C1339.98,1140.77 1335.18,1124.07 1332.44,1107C1330.41,1094.4 1329.59,1081.62 1327.73,1069C1326,1058.32 1323,1048 1323,1037C1328.44,1037.43 1333.62,1039.05 1339,1040C1354.6,1042.22 1370.3,1044.34 1386,1045.83C1408,1048 1430.93,1047 1453,1044.83C1464.33,1043.75 1475.78,1043.31 1487,1041.2C1491,1040.43 1497.96,1038.36 1501.44,1041.6C1505.79,1045.68 1502.99,1055 1502.27,1060C1500.99,1069 1500,1078.41 1496.91,1087C1494.35,1094.12 1490,1100.47 1486.28,1107C1481.28,1115.77 1476.59,1125.05 1470.33,1133C1461.93,1143.68 1451.29,1153 1442.17,1163C1429,1177.46 1416.28,1192.63 1402,1206C1396,1211.48 1389.24,1216.17 1383,1221.44C1370.72,1231.8 1361,1246 1347,1254ZM1214,1321C1216,1329.02 1216,1336.77 1216,1345C1212.2,1339.47 1211.41,1327.16 1214,1321Z" style="fill-rule:nonzero;"/>
    </g>
</svg>
